<svg xmlns="http://www.w3.org/2000/svg" xmlns:xlink="http://www.w3.org/1999/xlink" width="336" zoomAndPan="magnify" viewBox="0 0 252 143.999998" height="192" preserveAspectRatio="xMidYMid meet" version="1.0"><defs><g/><clipPath id="e9364271d4"><path d="M 92 58.3125 L 97 58.3125 L 97 84 L 92 84 Z M 92 58.3125 " clip-rule="nonzero"/></clipPath><clipPath id="c71d60a151"><path d="M 82.222656 71 L 107 71 L 107 86 L 82.222656 86 Z M 82.222656 71 " clip-rule="nonzero"/></clipPath><clipPath id="76dcf7fb7c"><path d="M 0.640625 2 L 6 2 L 6 8 L 0.640625 8 Z M 0.640625 2 " clip-rule="nonzero"/></clipPath><clipPath id="d404597eb4"><path d="M 18 6 L 20 6 L 20 8.761719 L 18 8.761719 Z M 18 6 " clip-rule="nonzero"/></clipPath><clipPath id="4d5dc34924"><rect x="0" width="66" y="0" height="9"/></clipPath><clipPath id="ecd9bb0540"><path d="M 54 2 L 56.398438 2 L 56.398438 6 L 54 6 Z M 54 2 " clip-rule="nonzero"/></clipPath><clipPath id="53e5dfe0b4"><rect x="0" width="57" y="0" height="8"/></clipPath></defs><path fill="#ffffff" d="M 92.253906 68.738281 L 90.472656 67.515625 Z M 92.253906 68.738281 " fill-opacity="1" fill-rule="nonzero"/><path fill="#102949" d="M 90.472656 61.191406 L 91.515625 60.476562 L 91.515625 67.796875 L 90.472656 67.082031 L 90.472656 61.191406 " fill-opacity="1" fill-rule="nonzero"/><g clip-path="url(#e9364271d4)"><path fill="#102949" d="M 96.089844 58.957031 L 96.089844 72.726562 L 96.015625 72.738281 L 96.015625 82.5625 C 95.949219 82.582031 95.878906 82.605469 95.808594 82.625 C 94.746094 82.945312 93.667969 83.175781 92.613281 83.308594 L 92.613281 68.550781 L 92.457031 68.441406 L 92 68.128906 L 92.089844 68.128906 L 92.089844 60.085938 L 93.664062 59.003906 L 93.664062 64.734375 L 93.976562 64.734375 L 93.976562 58.789062 L 94.667969 58.316406 L 96.089844 58.957031 " fill-opacity="1" fill-rule="nonzero"/></g><path fill="#102949" d="M 100 60.710938 L 100 71.972656 L 96.664062 72.613281 L 96.664062 59.214844 L 97.574219 59.621094 L 97.574219 62.847656 L 97.886719 62.847656 L 97.886719 59.761719 L 99.320312 60.40625 L 99.320312 66.972656 L 99.632812 66.972656 L 99.632812 60.546875 L 100 60.710938 " fill-opacity="1" fill-rule="nonzero"/><path fill="#2869ad" d="M 100.707031 73.140625 C 100.609375 73.15625 100.347656 73.203125 100 73.265625 C 98.988281 73.449219 97.246094 73.765625 96.574219 73.914062 L 96.574219 73.375 C 97.246094 73.226562 98.988281 72.910156 100 72.726562 C 100.347656 72.664062 100.609375 72.617188 100.707031 72.601562 Z M 100.707031 74.136719 C 100.609375 74.15625 100.347656 74.203125 100 74.265625 C 98.988281 74.445312 97.246094 74.765625 96.574219 74.914062 L 96.574219 74.371094 C 97.246094 74.226562 98.988281 73.90625 100 73.726562 C 100.347656 73.664062 100.609375 73.617188 100.707031 73.597656 Z M 100.707031 75.136719 C 100.609375 75.152344 100.347656 75.199219 100 75.261719 C 98.988281 75.445312 97.246094 75.761719 96.574219 75.910156 L 96.574219 75.371094 C 97.246094 75.222656 98.988281 74.90625 100 74.722656 C 100.347656 74.660156 100.609375 74.613281 100.707031 74.597656 Z M 100.707031 76.136719 C 100.609375 76.152344 100.347656 76.199219 100 76.261719 C 98.988281 76.445312 97.246094 76.761719 96.574219 76.910156 L 96.574219 76.371094 C 97.246094 76.222656 98.988281 75.90625 100 75.722656 C 100.347656 75.660156 100.609375 75.613281 100.707031 75.597656 Z M 100.707031 77.132812 C 100.609375 77.152344 100.347656 77.199219 100 77.261719 C 98.988281 77.441406 97.246094 77.761719 96.574219 77.90625 L 96.574219 77.367188 C 97.246094 77.21875 98.988281 76.902344 100 76.722656 C 100.347656 76.660156 100.609375 76.613281 100.707031 76.59375 Z M 100.707031 78.132812 C 100.609375 78.148438 100.347656 78.195312 100 78.257812 C 98.988281 78.441406 97.246094 78.757812 96.574219 78.90625 L 96.574219 78.367188 C 97.246094 78.21875 98.988281 77.902344 100 77.71875 C 100.347656 77.65625 100.609375 77.609375 100.707031 77.59375 Z M 100.707031 79.132812 C 100.609375 79.148438 100.347656 79.195312 100 79.257812 C 98.988281 79.441406 97.246094 79.757812 96.574219 79.90625 L 96.574219 79.367188 C 97.246094 79.21875 98.988281 78.902344 100 78.71875 C 100.347656 78.65625 100.609375 78.609375 100.707031 78.589844 Z M 100.707031 80.128906 C 100.609375 80.148438 100.347656 80.195312 100 80.257812 C 98.988281 80.4375 97.246094 80.757812 96.574219 80.902344 L 96.574219 80.363281 C 97.246094 80.214844 98.988281 79.898438 100 79.714844 C 100.347656 79.65625 100.609375 79.609375 100.707031 79.589844 Z M 100.824219 72.144531 L 100.816406 72.144531 L 100 72.300781 L 96.375 72.996094 L 96.375 82.445312 C 96.441406 82.421875 96.507812 82.402344 96.574219 82.378906 L 96.574219 82.363281 C 96.613281 82.355469 96.652344 82.34375 96.695312 82.335938 C 97.414062 82.085938 98.101562 81.796875 98.753906 81.480469 C 97.90625 81.636719 97.011719 81.804688 96.574219 81.902344 L 96.574219 81.363281 C 97.246094 81.214844 98.988281 80.898438 100 80.714844 C 100.082031 80.703125 100.15625 80.6875 100.230469 80.675781 C 101.121094 80.125 101.914062 79.515625 102.578125 78.863281 L 102.578125 73.308594 L 100.824219 72.144531 " fill-opacity="1" fill-rule="nonzero"/><path fill="#2869ad" d="M 89.058594 68.195312 L 88.042969 68.652344 L 88.042969 67.703125 L 89.058594 67.25 Z M 89.058594 69.601562 L 88.042969 70.054688 L 88.042969 69.109375 L 89.058594 68.652344 Z M 89.058594 71.003906 L 88.042969 71.460938 L 88.042969 70.511719 L 89.058594 70.054688 Z M 89.058594 72.40625 L 88.042969 72.863281 L 88.042969 71.914062 L 89.058594 71.460938 Z M 89.058594 73.808594 L 88.042969 74.265625 L 88.042969 73.320312 L 89.058594 72.863281 Z M 89.058594 75.214844 L 88.042969 75.671875 L 88.042969 74.722656 L 89.058594 74.265625 Z M 89.058594 76.617188 L 88.042969 77.074219 L 88.042969 76.125 L 89.058594 75.671875 Z M 89.058594 78.019531 L 88.042969 78.476562 L 88.042969 77.53125 L 89.058594 77.074219 Z M 89.058594 79.425781 L 88.042969 79.878906 L 88.042969 78.933594 L 89.058594 78.476562 Z M 89.058594 80.828125 L 88.042969 81.285156 L 88.042969 80.335938 L 89.058594 79.878906 Z M 89.058594 82.230469 L 88.042969 82.6875 L 88.042969 81.738281 L 89.058594 81.285156 Z M 87.820312 68.75 L 86.921875 69.15625 L 86.921875 68.207031 L 87.820312 67.804688 Z M 87.820312 70.15625 L 86.921875 70.558594 L 86.921875 69.613281 L 87.820312 69.207031 Z M 87.820312 71.558594 L 86.921875 71.960938 L 86.921875 71.015625 L 87.820312 70.609375 Z M 87.820312 72.960938 L 86.921875 73.367188 L 86.921875 72.417969 L 87.820312 72.015625 Z M 87.820312 74.367188 L 86.921875 74.769531 L 86.921875 73.820312 L 87.820312 73.417969 Z M 87.820312 75.769531 L 86.921875 76.171875 L 86.921875 75.226562 L 87.820312 74.820312 Z M 87.820312 77.171875 L 86.921875 77.578125 L 86.921875 76.628906 L 87.820312 76.226562 Z M 87.820312 78.578125 L 86.921875 78.980469 L 86.921875 78.03125 L 87.820312 77.628906 Z M 87.820312 79.980469 L 86.921875 80.382812 L 86.921875 79.4375 L 87.820312 79.03125 Z M 87.820312 81.382812 L 86.921875 81.789062 L 86.921875 80.839844 L 87.820312 80.4375 Z M 86.703125 69.253906 L 85.6875 69.710938 L 85.6875 68.761719 L 86.703125 68.308594 Z M 86.703125 70.660156 L 85.6875 71.113281 L 85.6875 70.167969 L 86.703125 69.710938 Z M 86.703125 72.0625 L 85.6875 72.519531 L 85.6875 71.570312 L 86.703125 71.113281 Z M 86.703125 73.464844 L 85.6875 73.921875 L 85.6875 72.972656 L 86.703125 72.519531 Z M 86.703125 74.871094 L 85.6875 75.324219 L 85.6875 74.378906 L 86.703125 73.921875 Z M 86.703125 76.273438 L 85.6875 76.730469 L 85.6875 75.78125 L 86.703125 75.324219 Z M 86.703125 77.675781 L 85.6875 78.132812 L 85.6875 77.183594 L 86.703125 76.730469 Z M 86.703125 79.078125 L 85.6875 79.535156 L 85.6875 78.589844 L 86.703125 78.132812 Z M 86.703125 80.484375 L 85.6875 80.9375 L 85.6875 79.992188 L 86.703125 79.535156 Z M 86.703125 81.886719 L 85.6875 82.34375 L 85.6875 81.394531 L 86.703125 80.9375 Z M 90.472656 67.515625 L 89.285156 66.703125 L 85.511719 68.398438 L 85.511719 82.242188 C 85.703125 82.371094 85.910156 82.488281 86.132812 82.597656 L 86.703125 82.34375 L 86.703125 82.84375 C 86.773438 82.871094 86.847656 82.894531 86.921875 82.921875 L 86.921875 82.242188 L 87.820312 81.839844 L 87.820312 82.785156 L 87.277344 83.03125 C 87.523438 83.101562 87.777344 83.167969 88.042969 83.21875 L 88.042969 83.144531 L 89.058594 82.6875 L 89.058594 83.371094 C 89.523438 83.421875 90.007812 83.449219 90.511719 83.449219 C 91.078125 83.449219 91.660156 83.414062 92.253906 83.351562 L 92.253906 68.738281 L 90.472656 67.515625 " fill-opacity="1" fill-rule="nonzero"/><g clip-path="url(#c71d60a151)"><path fill="#102949" d="M 102.578125 81.90625 C 102 82.304688 101.375 82.683594 100.707031 83.039062 C 100.625 83.082031 100.539062 83.125 100.453125 83.171875 C 99.929688 83.4375 99.382812 83.691406 98.8125 83.925781 C 98.105469 84.21875 97.367188 84.484375 96.597656 84.714844 C 96.589844 84.714844 96.582031 84.71875 96.574219 84.722656 C 96.507812 84.742188 96.441406 84.761719 96.375 84.78125 C 96.257812 84.816406 96.136719 84.847656 96.015625 84.882812 C 94.859375 85.199219 93.714844 85.417969 92.613281 85.546875 C 92.496094 85.5625 92.375 85.574219 92.253906 85.585938 C 91.613281 85.648438 90.988281 85.679688 90.386719 85.679688 C 89.476562 85.679688 88.617188 85.609375 87.820312 85.472656 C 87.511719 85.421875 87.210938 85.355469 86.921875 85.285156 C 86.847656 85.265625 86.773438 85.246094 86.703125 85.226562 L 86.703125 85.148438 L 86.601562 85.195312 C 86.394531 85.136719 86.199219 85.074219 86.007812 85.003906 C 85.898438 84.964844 85.792969 84.925781 85.6875 84.882812 C 85.628906 84.859375 85.570312 84.835938 85.511719 84.808594 C 84.089844 84.191406 83.09375 83.257812 82.726562 82.046875 C 82.222656 80.371094 83.015625 78.476562 84.71875 76.734375 C 83.695312 78.0625 83.277344 79.449219 83.652344 80.703125 C 83.925781 81.601562 84.578125 82.335938 85.511719 82.875 C 85.570312 82.910156 85.628906 82.941406 85.6875 82.972656 C 85.957031 83.117188 86.242188 83.246094 86.550781 83.359375 C 86.738281 83.429688 86.933594 83.492188 87.136719 83.550781 C 87.359375 83.613281 87.585938 83.671875 87.820312 83.722656 C 87.894531 83.738281 87.96875 83.75 88.042969 83.765625 C 88.214844 83.796875 88.390625 83.828125 88.570312 83.851562 C 89.183594 83.941406 89.832031 83.984375 90.511719 83.984375 C 91.074219 83.984375 91.65625 83.953125 92.253906 83.890625 C 92.375 83.878906 92.496094 83.867188 92.613281 83.851562 C 93.695312 83.71875 94.824219 83.484375 95.960938 83.140625 C 95.980469 83.132812 96 83.128906 96.015625 83.121094 C 96.136719 83.085938 96.257812 83.046875 96.375 83.007812 C 96.554688 82.953125 96.726562 82.894531 96.902344 82.832031 C 97.710938 82.546875 98.476562 82.21875 99.195312 81.859375 C 99.625 81.644531 100.039062 81.414062 100.429688 81.179688 C 100.523438 81.121094 100.617188 81.0625 100.707031 81.003906 C 101.40625 80.5625 102.03125 80.089844 102.578125 79.601562 C 104.457031 77.910156 105.382812 75.988281 104.878906 74.3125 C 104.414062 72.769531 102.824219 71.722656 100.625 71.273438 C 103.757812 71.585938 106.085938 72.828125 106.6875 74.832031 C 107.371094 77.09375 105.679688 79.769531 102.578125 81.90625 " fill-opacity="1" fill-rule="nonzero"/></g><path fill="#102949" d="M 86.703125 85.148438 L 86.703125 85.226562 C 86.667969 85.214844 86.632812 85.207031 86.601562 85.195312 L 86.703125 85.148438 " fill-opacity="1" fill-rule="nonzero"/><g transform="matrix(1, 0, 0, 1, 104, 63)"><g clip-path="url(#4d5dc34924)"><g clip-path="url(#76dcf7fb7c)"><g fill="#102949" fill-opacity="1"><g transform="translate(0.829083, 7.435599)"><g><path d="M 2.96875 -0.734375 L 1.59375 -0.734375 L 1.390625 0 L 0.0625 0 L 1.59375 -5.09375 L 2.96875 -5.09375 L 4.484375 0 L 3.171875 0 Z M 2.609375 -1.921875 L 2.28125 -3.390625 L 1.953125 -1.921875 Z M 2.609375 -1.921875 "/></g></g></g></g><g fill="#102949" fill-opacity="1"><g transform="translate(5.372362, 7.435599)"><g><path d="M 4.015625 0 L 3.40625 0 L 3.25 -0.5625 C 2.925781 -0.132812 2.554688 0.078125 2.140625 0.078125 C 1.523438 0.078125 1.050781 -0.148438 0.71875 -0.609375 C 0.394531 -1.066406 0.234375 -1.710938 0.234375 -2.546875 C 0.234375 -3.378906 0.394531 -4.019531 0.71875 -4.46875 C 1.050781 -4.925781 1.523438 -5.15625 2.140625 -5.15625 C 2.660156 -5.15625 3.078125 -4.988281 3.390625 -4.65625 C 3.710938 -4.332031 3.914062 -3.863281 4 -3.25 L 2.6875 -3 C 2.625 -3.539062 2.441406 -3.8125 2.140625 -3.8125 C 1.953125 -3.8125 1.804688 -3.703125 1.703125 -3.484375 C 1.609375 -3.265625 1.5625 -2.953125 1.5625 -2.546875 C 1.5625 -2.140625 1.609375 -1.828125 1.703125 -1.609375 C 1.804688 -1.390625 1.953125 -1.28125 2.140625 -1.28125 C 2.304688 -1.28125 2.429688 -1.453125 2.515625 -1.796875 L 2.109375 -1.796875 L 2.109375 -2.734375 L 4.046875 -2.734375 Z M 4.015625 0 "/></g></g></g><g fill="#102949" fill-opacity="1"><g transform="translate(9.692035, 7.435599)"><g><path d="M 2.171875 0.078125 C 1.554688 0.078125 1.078125 -0.148438 0.734375 -0.609375 C 0.398438 -1.066406 0.234375 -1.710938 0.234375 -2.546875 C 0.234375 -3.378906 0.398438 -4.019531 0.734375 -4.46875 C 1.078125 -4.925781 1.554688 -5.15625 2.171875 -5.15625 C 2.796875 -5.15625 3.273438 -4.925781 3.609375 -4.46875 C 3.953125 -4.019531 4.125 -3.378906 4.125 -2.546875 C 4.125 -1.710938 3.953125 -1.066406 3.609375 -0.609375 C 3.273438 -0.148438 2.796875 0.078125 2.171875 0.078125 Z M 2.1875 -1.28125 C 2.382812 -1.28125 2.535156 -1.390625 2.640625 -1.609375 C 2.742188 -1.828125 2.800781 -2.140625 2.8125 -2.546875 C 2.800781 -2.953125 2.742188 -3.265625 2.640625 -3.484375 C 2.535156 -3.703125 2.382812 -3.8125 2.1875 -3.8125 C 1.988281 -3.8125 1.832031 -3.703125 1.71875 -3.484375 C 1.613281 -3.265625 1.5625 -2.953125 1.5625 -2.546875 C 1.5625 -2.140625 1.613281 -1.828125 1.71875 -1.609375 C 1.832031 -1.390625 1.988281 -1.28125 2.1875 -1.28125 Z M 2.1875 -1.28125 "/></g></g></g><g fill="#102949" fill-opacity="1"><g transform="translate(14.052364, 7.435599)"><g><path d="M 2.140625 0.0625 C 2.753906 0.0703125 3.226562 -0.0507812 3.5625 -0.3125 C 3.894531 -0.570312 4.0625 -0.945312 4.0625 -1.4375 C 4.0625 -1.707031 4 -1.9375 3.875 -2.125 C 3.75 -2.3125 3.585938 -2.46875 3.390625 -2.59375 C 3.191406 -2.71875 2.976562 -2.828125 2.75 -2.921875 C 2.53125 -3.015625 2.320312 -3.09375 2.125 -3.15625 C 1.925781 -3.226562 1.765625 -3.296875 1.640625 -3.359375 C 1.515625 -3.421875 1.453125 -3.492188 1.453125 -3.578125 C 1.453125 -3.804688 1.664062 -3.921875 2.09375 -3.921875 C 2.289062 -3.921875 2.453125 -3.863281 2.578125 -3.75 C 2.710938 -3.644531 2.800781 -3.488281 2.84375 -3.28125 L 3.953125 -3.609375 C 3.847656 -4.109375 3.632812 -4.488281 3.3125 -4.75 C 3 -5.019531 2.59375 -5.15625 2.09375 -5.15625 C 1.476562 -5.15625 1.003906 -5.023438 0.671875 -4.765625 C 0.347656 -4.515625 0.1875 -4.148438 0.1875 -3.671875 C 0.1875 -3.398438 0.25 -3.171875 0.375 -2.984375 C 0.5 -2.796875 0.660156 -2.640625 0.859375 -2.515625 C 1.054688 -2.390625 1.265625 -2.285156 1.484375 -2.203125 C 1.703125 -2.117188 1.910156 -2.039062 2.109375 -1.96875 C 2.304688 -1.90625 2.46875 -1.835938 2.59375 -1.765625 C 2.71875 -1.691406 2.78125 -1.609375 2.78125 -1.515625 C 2.78125 -1.296875 2.566406 -1.1875 2.140625 -1.1875 C 1.953125 -1.1875 1.789062 -1.238281 1.65625 -1.34375 C 1.53125 -1.457031 1.441406 -1.613281 1.390625 -1.8125 L 0.28125 -1.46875 C 0.394531 -0.976562 0.609375 -0.597656 0.921875 -0.328125 C 1.242188 -0.0546875 1.648438 0.0703125 2.140625 0.0625 Z M 2.140625 0.0625 "/></g></g></g><g clip-path="url(#d404597eb4)"><g fill="#102949" fill-opacity="1"><g transform="translate(18.311051, 7.435599)"><g><path d="M 1.65625 -1.234375 L 1.65625 0 L 1 0.828125 L 0.25 0.828125 L 0.609375 0 L 0.265625 0 L 0.265625 -1.234375 Z M 1.65625 -1.234375 "/></g></g></g></g><g fill="#102949" fill-opacity="1"><g transform="translate(20.201539, 7.435599)"><g/></g></g><g fill="#102949" fill-opacity="1"><g transform="translate(21.411042, 7.435599)"><g><path d="M 3.875 -3.75 L 2.75 -3.75 L 2.75 0 L 1.390625 0 L 1.390625 -3.75 L 0.25 -3.75 L 0.25 -5.09375 L 3.875 -5.09375 Z M 3.875 -3.75 "/></g></g></g><g fill="#102949" fill-opacity="1"><g transform="translate(25.537596, 7.435599)"><g><path d="M 1.640625 -3.859375 L 1.640625 -3.140625 L 3.453125 -3.140625 L 3.453125 -1.9375 L 1.640625 -1.9375 L 1.640625 -1.234375 L 3.453125 -1.234375 L 3.453125 0 L 0.28125 0 L 0.28125 -5.09375 L 3.453125 -5.09375 L 3.453125 -3.859375 Z M 1.640625 -3.859375 "/></g></g></g><g fill="#102949" fill-opacity="1"><g transform="translate(29.267756, 7.435599)"><g><path d="M 2.640625 -2.09375 C 2.609375 -1.832031 2.546875 -1.628906 2.453125 -1.484375 C 2.367188 -1.347656 2.253906 -1.28125 2.109375 -1.28125 C 1.941406 -1.28125 1.804688 -1.390625 1.703125 -1.609375 C 1.609375 -1.828125 1.5625 -2.140625 1.5625 -2.546875 C 1.5625 -2.953125 1.609375 -3.265625 1.703125 -3.484375 C 1.804688 -3.703125 1.941406 -3.8125 2.109375 -3.8125 C 2.390625 -3.8125 2.566406 -3.539062 2.640625 -3 L 3.9375 -3.234375 C 3.832031 -3.847656 3.625 -4.320312 3.3125 -4.65625 C 3 -4.988281 2.597656 -5.15625 2.109375 -5.15625 C 1.515625 -5.15625 1.050781 -4.925781 0.71875 -4.46875 C 0.394531 -4.019531 0.234375 -3.378906 0.234375 -2.546875 C 0.234375 -1.710938 0.394531 -1.066406 0.71875 -0.609375 C 1.050781 -0.148438 1.515625 0.078125 2.109375 0.078125 C 2.597656 0.078125 3 -0.0859375 3.3125 -0.421875 C 3.625 -0.765625 3.832031 -1.242188 3.9375 -1.859375 Z M 2.640625 -2.09375 "/></g></g></g><g fill="#102949" fill-opacity="1"><g transform="translate(33.434964, 7.435599)"><g><path d="M 3.90625 -5.09375 L 3.90625 0 L 2.5625 0 L 2.5625 -1.875 L 1.640625 -1.875 L 1.640625 0 L 0.28125 0 L 0.28125 -5.09375 L 1.640625 -5.09375 L 1.640625 -3.21875 L 2.5625 -3.21875 L 2.5625 -5.09375 Z M 3.90625 -5.09375 "/></g></g></g><g fill="#102949" fill-opacity="1"><g transform="translate(37.632665, 7.435599)"><g><path d="M 0.28125 0 L 0.28125 -5.09375 L 1.421875 -5.09375 L 2.5625 -2.71875 L 2.5625 -5.09375 L 3.90625 -5.09375 L 3.90625 0 L 2.78125 0 L 1.640625 -2.375 L 1.640625 0 Z M 0.28125 0 "/></g></g></g><g fill="#102949" fill-opacity="1"><g transform="translate(41.830366, 7.435599)"><g><path d="M 2.171875 0.078125 C 1.554688 0.078125 1.078125 -0.148438 0.734375 -0.609375 C 0.398438 -1.066406 0.234375 -1.710938 0.234375 -2.546875 C 0.234375 -3.378906 0.398438 -4.019531 0.734375 -4.46875 C 1.078125 -4.925781 1.554688 -5.15625 2.171875 -5.15625 C 2.796875 -5.15625 3.273438 -4.925781 3.609375 -4.46875 C 3.953125 -4.019531 4.125 -3.378906 4.125 -2.546875 C 4.125 -1.710938 3.953125 -1.066406 3.609375 -0.609375 C 3.273438 -0.148438 2.796875 0.078125 2.171875 0.078125 Z M 2.1875 -1.28125 C 2.382812 -1.28125 2.535156 -1.390625 2.640625 -1.609375 C 2.742188 -1.828125 2.800781 -2.140625 2.8125 -2.546875 C 2.800781 -2.953125 2.742188 -3.265625 2.640625 -3.484375 C 2.535156 -3.703125 2.382812 -3.8125 2.1875 -3.8125 C 1.988281 -3.8125 1.832031 -3.703125 1.71875 -3.484375 C 1.613281 -3.265625 1.5625 -2.953125 1.5625 -2.546875 C 1.5625 -2.140625 1.613281 -1.828125 1.71875 -1.609375 C 1.832031 -1.390625 1.988281 -1.28125 2.1875 -1.28125 Z M 2.1875 -1.28125 "/></g></g></g><g fill="#102949" fill-opacity="1"><g transform="translate(46.190694, 7.435599)"><g><path d="M 3.453125 -1.359375 L 3.453125 0 L 0.28125 0 L 0.28125 -5.09375 L 1.640625 -5.09375 L 1.640625 -1.359375 Z M 3.453125 -1.359375 "/></g></g></g><g fill="#102949" fill-opacity="1"><g transform="translate(49.880199, 7.435599)"><g><path d="M 2.171875 0.078125 C 1.554688 0.078125 1.078125 -0.148438 0.734375 -0.609375 C 0.398438 -1.066406 0.234375 -1.710938 0.234375 -2.546875 C 0.234375 -3.378906 0.398438 -4.019531 0.734375 -4.46875 C 1.078125 -4.925781 1.554688 -5.15625 2.171875 -5.15625 C 2.796875 -5.15625 3.273438 -4.925781 3.609375 -4.46875 C 3.953125 -4.019531 4.125 -3.378906 4.125 -2.546875 C 4.125 -1.710938 3.953125 -1.066406 3.609375 -0.609375 C 3.273438 -0.148438 2.796875 0.078125 2.171875 0.078125 Z M 2.1875 -1.28125 C 2.382812 -1.28125 2.535156 -1.390625 2.640625 -1.609375 C 2.742188 -1.828125 2.800781 -2.140625 2.8125 -2.546875 C 2.800781 -2.953125 2.742188 -3.265625 2.640625 -3.484375 C 2.535156 -3.703125 2.382812 -3.8125 2.1875 -3.8125 C 1.988281 -3.8125 1.832031 -3.703125 1.71875 -3.484375 C 1.613281 -3.265625 1.5625 -2.953125 1.5625 -2.546875 C 1.5625 -2.140625 1.613281 -1.828125 1.71875 -1.609375 C 1.832031 -1.390625 1.988281 -1.28125 2.1875 -1.28125 Z M 2.1875 -1.28125 "/></g></g></g><g fill="#102949" fill-opacity="1"><g transform="translate(54.240528, 7.435599)"><g><path d="M 4.015625 0 L 3.40625 0 L 3.25 -0.5625 C 2.925781 -0.132812 2.554688 0.078125 2.140625 0.078125 C 1.523438 0.078125 1.050781 -0.148438 0.71875 -0.609375 C 0.394531 -1.066406 0.234375 -1.710938 0.234375 -2.546875 C 0.234375 -3.378906 0.394531 -4.019531 0.71875 -4.46875 C 1.050781 -4.925781 1.523438 -5.15625 2.140625 -5.15625 C 2.660156 -5.15625 3.078125 -4.988281 3.390625 -4.65625 C 3.710938 -4.332031 3.914062 -3.863281 4 -3.25 L 2.6875 -3 C 2.625 -3.539062 2.441406 -3.8125 2.140625 -3.8125 C 1.953125 -3.8125 1.804688 -3.703125 1.703125 -3.484375 C 1.609375 -3.265625 1.5625 -2.953125 1.5625 -2.546875 C 1.5625 -2.140625 1.609375 -1.828125 1.703125 -1.609375 C 1.804688 -1.390625 1.953125 -1.28125 2.140625 -1.28125 C 2.304688 -1.28125 2.429688 -1.453125 2.515625 -1.796875 L 2.109375 -1.796875 L 2.109375 -2.734375 L 4.046875 -2.734375 Z M 4.015625 0 "/></g></g></g><g fill="#102949" fill-opacity="1"><g transform="translate(58.560201, 7.435599)"><g><path d="M 4.1875 -5.09375 L 2.8125 -2.078125 L 2.8125 0 L 1.46875 0 L 1.46875 -2.078125 L 0.109375 -5.09375 L 1.53125 -5.09375 L 2.140625 -3.375 L 2.765625 -5.09375 Z M 4.1875 -5.09375 "/></g></g></g><g fill="#102949" fill-opacity="1"><g transform="translate(62.798557, 7.435599)"><g><path d="M 0.890625 0.078125 C 0.679688 0.078125 0.519531 0.0195312 0.40625 -0.09375 C 0.289062 -0.21875 0.234375 -0.382812 0.234375 -0.59375 C 0.234375 -1.019531 0.453125 -1.234375 0.890625 -1.234375 C 1.335938 -1.234375 1.5625 -1.019531 1.5625 -0.59375 C 1.5625 -0.382812 1.503906 -0.21875 1.390625 -0.09375 C 1.273438 0.0195312 1.109375 0.078125 0.890625 0.078125 Z M 0.890625 0.078125 "/></g></g></g></g></g><g transform="matrix(1, 0, 0, 1, 108, 70)"><g clip-path="url(#53e5dfe0b4)"><g fill="#102949" fill-opacity="1"><g transform="translate(1.088056, 5.084183)"><g><path d="M 1.421875 -2.640625 C 1.691406 -2.640625 1.898438 -2.582031 2.046875 -2.46875 C 2.203125 -2.351562 2.28125 -2.144531 2.28125 -1.84375 C 2.28125 -1.71875 2.257812 -1.625 2.21875 -1.5625 C 2.175781 -1.5 2.085938 -1.410156 1.953125 -1.296875 C 2.148438 -1.171875 2.25 -0.984375 2.25 -0.734375 L 2.25 -0.484375 C 2.25 -0.328125 2.289062 -0.210938 2.375 -0.140625 L 2.375 0 L 1.90625 0 C 1.863281 -0.113281 1.835938 -0.203125 1.828125 -0.265625 C 1.816406 -0.328125 1.8125 -0.40625 1.8125 -0.5 L 1.8125 -0.671875 C 1.8125 -0.804688 1.785156 -0.910156 1.734375 -0.984375 C 1.679688 -1.054688 1.582031 -1.09375 1.4375 -1.09375 L 0.640625 -1.09375 L 0.640625 0 L 0.203125 0 L 0.203125 -2.640625 Z M 1.5 -1.46875 C 1.601562 -1.46875 1.6875 -1.492188 1.75 -1.546875 C 1.8125 -1.609375 1.84375 -1.722656 1.84375 -1.890625 C 1.84375 -2.148438 1.703125 -2.28125 1.421875 -2.28125 L 0.640625 -2.28125 L 0.640625 -1.46875 Z M 1.5 -1.46875 "/></g></g></g><g fill="#102949" fill-opacity="1"><g transform="translate(3.576817, 5.084183)"><g><path d="M 0.296875 0 L 0.296875 -2.640625 L 1.984375 -2.640625 L 1.984375 -2.265625 L 0.75 -2.265625 L 0.75 -1.484375 L 1.71875 -1.484375 L 1.71875 -1.109375 L 0.75 -1.109375 L 0.75 -0.359375 L 1.984375 -0.359375 L 1.984375 0 Z M 0.296875 0 "/></g></g></g><g fill="#102949" fill-opacity="1"><g transform="translate(5.721915, 5.084183)"><g><path d="M 1.734375 0 L 1.578125 -0.578125 L 0.703125 -0.578125 L 0.53125 0 L 0.09375 0 L 0.875 -2.640625 L 1.484375 -2.640625 L 2.234375 0 Z M 1.140625 -2.234375 L 0.796875 -0.9375 L 1.484375 -0.9375 Z M 1.140625 -2.234375 "/></g></g></g><g fill="#102949" fill-opacity="1"><g transform="translate(8.093605, 5.084183)"><g><path d="M 0.28125 0 L 0.28125 -2.640625 L 0.734375 -2.640625 L 0.734375 -0.40625 L 1.765625 -0.40625 L 1.765625 0 Z M 0.28125 0 "/></g></g></g><g fill="#102949" fill-opacity="1"><g transform="translate(9.944125, 5.084183)"><g/></g></g><g fill="#102949" fill-opacity="1"><g transform="translate(11.243269, 5.084183)"><g><path d="M 0.296875 0 L 0.296875 -2.640625 L 1.984375 -2.640625 L 1.984375 -2.265625 L 0.75 -2.265625 L 0.75 -1.484375 L 1.71875 -1.484375 L 1.71875 -1.109375 L 0.75 -1.109375 L 0.75 -0.359375 L 1.984375 -0.359375 L 1.984375 0 Z M 0.296875 0 "/></g></g></g><g fill="#102949" fill-opacity="1"><g transform="translate(13.388366, 5.084183)"><g><path d="M 0.203125 -1.890625 C 0.203125 -2.128906 0.273438 -2.320312 0.421875 -2.46875 C 0.578125 -2.625 0.789062 -2.703125 1.0625 -2.703125 C 1.507812 -2.703125 1.796875 -2.519531 1.921875 -2.15625 L 1.53125 -2.015625 C 1.488281 -2.109375 1.4375 -2.175781 1.375 -2.21875 C 1.3125 -2.269531 1.21875 -2.296875 1.09375 -2.296875 C 0.976562 -2.296875 0.882812 -2.269531 0.8125 -2.21875 C 0.738281 -2.175781 0.703125 -2.097656 0.703125 -1.984375 C 0.703125 -1.878906 0.722656 -1.800781 0.765625 -1.75 C 0.816406 -1.707031 0.921875 -1.671875 1.078125 -1.640625 C 1.109375 -1.640625 1.148438 -1.628906 1.203125 -1.609375 C 1.265625 -1.597656 1.328125 -1.582031 1.390625 -1.5625 C 1.460938 -1.539062 1.535156 -1.507812 1.609375 -1.46875 C 1.691406 -1.425781 1.757812 -1.378906 1.8125 -1.328125 C 1.875 -1.273438 1.921875 -1.203125 1.953125 -1.109375 C 1.992188 -1.023438 2.015625 -0.929688 2.015625 -0.828125 C 2.015625 -0.679688 1.988281 -0.550781 1.9375 -0.4375 C 1.882812 -0.320312 1.8125 -0.234375 1.71875 -0.171875 C 1.625 -0.109375 1.519531 -0.0625 1.40625 -0.03125 C 1.289062 0 1.164062 0.015625 1.03125 0.015625 C 0.800781 0.015625 0.601562 -0.0351562 0.4375 -0.140625 C 0.269531 -0.242188 0.15625 -0.398438 0.09375 -0.609375 C 0.382812 -0.703125 0.539062 -0.75 0.5625 -0.75 C 0.601562 -0.613281 0.664062 -0.519531 0.75 -0.46875 C 0.832031 -0.414062 0.945312 -0.390625 1.09375 -0.390625 C 1.144531 -0.390625 1.203125 -0.394531 1.265625 -0.40625 C 1.328125 -0.425781 1.382812 -0.460938 1.4375 -0.515625 C 1.5 -0.566406 1.53125 -0.632812 1.53125 -0.71875 C 1.53125 -0.757812 1.523438 -0.796875 1.515625 -0.828125 C 1.503906 -0.859375 1.488281 -0.882812 1.46875 -0.90625 C 1.457031 -0.9375 1.4375 -0.960938 1.40625 -0.984375 C 1.382812 -1.003906 1.359375 -1.019531 1.328125 -1.03125 C 1.304688 -1.039062 1.273438 -1.050781 1.234375 -1.0625 C 1.203125 -1.070312 1.171875 -1.078125 1.140625 -1.078125 C 1.109375 -1.085938 1.082031 -1.097656 1.0625 -1.109375 C 0.925781 -1.140625 0.8125 -1.171875 0.71875 -1.203125 C 0.632812 -1.234375 0.546875 -1.273438 0.453125 -1.328125 C 0.367188 -1.390625 0.304688 -1.46875 0.265625 -1.5625 C 0.222656 -1.65625 0.203125 -1.765625 0.203125 -1.890625 Z M 0.203125 -1.890625 "/></g></g></g><g fill="#102949" fill-opacity="1"><g transform="translate(15.608991, 5.084183)"><g><path d="M 1.21875 -2.25 L 1.21875 0 L 0.765625 0 L 0.765625 -2.25 L 0.125 -2.25 L 0.125 -2.640625 L 1.859375 -2.640625 L 1.859375 -2.25 Z M 1.21875 -2.25 "/></g></g></g><g fill="#102949" fill-opacity="1"><g transform="translate(17.610577, 5.084183)"><g><path d="M 1.734375 0 L 1.578125 -0.578125 L 0.703125 -0.578125 L 0.53125 0 L 0.09375 0 L 0.875 -2.640625 L 1.484375 -2.640625 L 2.234375 0 Z M 1.140625 -2.234375 L 0.796875 -0.9375 L 1.484375 -0.9375 Z M 1.140625 -2.234375 "/></g></g></g><g fill="#102949" fill-opacity="1"><g transform="translate(19.982267, 5.084183)"><g><path d="M 1.21875 -2.25 L 1.21875 0 L 0.765625 0 L 0.765625 -2.25 L 0.125 -2.25 L 0.125 -2.640625 L 1.859375 -2.640625 L 1.859375 -2.25 Z M 1.21875 -2.25 "/></g></g></g><g fill="#102949" fill-opacity="1"><g transform="translate(21.983852, 5.084183)"><g><path d="M 0.296875 0 L 0.296875 -2.640625 L 1.984375 -2.640625 L 1.984375 -2.265625 L 0.75 -2.265625 L 0.75 -1.484375 L 1.71875 -1.484375 L 1.71875 -1.109375 L 0.75 -1.109375 L 0.75 -0.359375 L 1.984375 -0.359375 L 1.984375 0 Z M 0.296875 0 "/></g></g></g><g fill="#102949" fill-opacity="1"><g transform="translate(24.128949, 5.084183)"><g/></g></g><g fill="#102949" fill-opacity="1"><g transform="translate(25.428094, 5.084183)"><g><path d="M 0.796875 -1.484375 C 0.734375 -1.566406 0.6875 -1.628906 0.65625 -1.671875 C 0.625 -1.722656 0.59375 -1.785156 0.5625 -1.859375 C 0.53125 -1.941406 0.515625 -2.019531 0.515625 -2.09375 C 0.515625 -2.28125 0.582031 -2.421875 0.71875 -2.515625 C 0.863281 -2.617188 1.035156 -2.671875 1.234375 -2.671875 C 1.441406 -2.671875 1.609375 -2.613281 1.734375 -2.5 C 1.867188 -2.394531 1.9375 -2.242188 1.9375 -2.046875 C 1.9375 -1.890625 1.890625 -1.765625 1.796875 -1.671875 C 1.710938 -1.578125 1.582031 -1.488281 1.40625 -1.40625 L 1.890625 -0.890625 C 2.023438 -1.054688 2.117188 -1.25 2.171875 -1.46875 L 2.5625 -1.421875 C 2.5 -1.148438 2.359375 -0.875 2.140625 -0.59375 C 2.210938 -0.507812 2.269531 -0.453125 2.3125 -0.421875 C 2.351562 -0.390625 2.414062 -0.375 2.5 -0.375 L 2.59375 -0.375 L 2.59375 -0.03125 C 2.519531 -0.0078125 2.457031 0 2.40625 0 C 2.289062 0 2.1875 -0.0195312 2.09375 -0.0625 C 2.007812 -0.101562 1.925781 -0.1875 1.84375 -0.3125 C 1.707031 -0.1875 1.578125 -0.0976562 1.453125 -0.046875 C 1.328125 0.00390625 1.1875 0.03125 1.03125 0.03125 C 0.757812 0.03125 0.550781 -0.0234375 0.40625 -0.140625 C 0.320312 -0.210938 0.253906 -0.3125 0.203125 -0.4375 C 0.148438 -0.5625 0.125 -0.691406 0.125 -0.828125 C 0.125 -0.992188 0.175781 -1.117188 0.28125 -1.203125 C 0.382812 -1.296875 0.554688 -1.390625 0.796875 -1.484375 Z M 1.25 -2.40625 C 1.175781 -2.40625 1.109375 -2.378906 1.046875 -2.328125 C 0.984375 -2.273438 0.953125 -2.203125 0.953125 -2.109375 C 0.953125 -2.046875 0.96875 -1.984375 1 -1.921875 C 1.03125 -1.867188 1.070312 -1.8125 1.125 -1.75 C 1.1875 -1.6875 1.226562 -1.644531 1.25 -1.625 C 1.363281 -1.664062 1.453125 -1.71875 1.515625 -1.78125 C 1.578125 -1.851562 1.609375 -1.941406 1.609375 -2.046875 C 1.609375 -2.148438 1.570312 -2.234375 1.5 -2.296875 C 1.4375 -2.367188 1.351562 -2.40625 1.25 -2.40625 Z M 0.609375 -0.859375 C 0.609375 -0.710938 0.65625 -0.585938 0.75 -0.484375 C 0.84375 -0.378906 0.957031 -0.328125 1.09375 -0.328125 C 1.257812 -0.328125 1.4375 -0.40625 1.625 -0.5625 L 1.015625 -1.234375 C 0.890625 -1.210938 0.789062 -1.164062 0.71875 -1.09375 C 0.644531 -1.03125 0.609375 -0.953125 0.609375 -0.859375 Z M 0.609375 -0.859375 "/></g></g></g><g fill="#102949" fill-opacity="1"><g transform="translate(28.1359, 5.084183)"><g/></g></g><g fill="#102949" fill-opacity="1"><g transform="translate(29.435044, 5.084183)"><g><path d="M 1.28125 0.015625 C 0.9375 0.015625 0.664062 -0.113281 0.46875 -0.375 C 0.28125 -0.632812 0.1875 -0.957031 0.1875 -1.34375 C 0.1875 -1.738281 0.285156 -2.0625 0.484375 -2.3125 C 0.679688 -2.570312 0.953125 -2.703125 1.296875 -2.703125 C 1.847656 -2.703125 2.164062 -2.394531 2.25 -1.78125 L 1.78125 -1.75 C 1.769531 -1.914062 1.722656 -2.050781 1.640625 -2.15625 C 1.566406 -2.269531 1.445312 -2.328125 1.28125 -2.328125 C 1.175781 -2.328125 1.082031 -2.289062 1 -2.21875 C 0.925781 -2.15625 0.867188 -2.066406 0.828125 -1.953125 C 0.796875 -1.847656 0.769531 -1.738281 0.75 -1.625 C 0.726562 -1.519531 0.71875 -1.414062 0.71875 -1.3125 C 0.71875 -1.164062 0.734375 -1.019531 0.765625 -0.875 C 0.804688 -0.738281 0.875 -0.617188 0.96875 -0.515625 C 1.0625 -0.410156 1.175781 -0.359375 1.3125 -0.359375 C 1.457031 -0.359375 1.566406 -0.410156 1.640625 -0.515625 C 1.722656 -0.617188 1.78125 -0.742188 1.8125 -0.890625 L 2.25 -0.859375 C 2.207031 -0.578125 2.097656 -0.359375 1.921875 -0.203125 C 1.753906 -0.0546875 1.539062 0.015625 1.28125 0.015625 Z M 1.28125 0.015625 "/></g></g></g><g fill="#102949" fill-opacity="1"><g transform="translate(31.874713, 5.084183)"><g><path d="M 1.203125 0.015625 C 0.960938 0.015625 0.757812 -0.0507812 0.59375 -0.1875 C 0.425781 -0.320312 0.304688 -0.488281 0.234375 -0.6875 C 0.160156 -0.894531 0.125 -1.125 0.125 -1.375 C 0.125 -1.539062 0.144531 -1.703125 0.1875 -1.859375 C 0.226562 -2.015625 0.296875 -2.15625 0.390625 -2.28125 C 0.484375 -2.414062 0.601562 -2.519531 0.75 -2.59375 C 0.894531 -2.664062 1.0625 -2.703125 1.25 -2.703125 C 1.40625 -2.703125 1.546875 -2.675781 1.671875 -2.625 C 1.796875 -2.570312 1.894531 -2.5 1.96875 -2.40625 C 2.039062 -2.320312 2.097656 -2.21875 2.140625 -2.09375 C 2.191406 -1.976562 2.222656 -1.859375 2.234375 -1.734375 C 2.253906 -1.617188 2.265625 -1.492188 2.265625 -1.359375 C 2.265625 -1.179688 2.242188 -1.007812 2.203125 -0.84375 C 2.160156 -0.6875 2.097656 -0.539062 2.015625 -0.40625 C 1.929688 -0.28125 1.816406 -0.175781 1.671875 -0.09375 C 1.535156 -0.0195312 1.378906 0.015625 1.203125 0.015625 Z M 1.234375 -2.328125 C 1.097656 -2.328125 0.976562 -2.273438 0.875 -2.171875 C 0.78125 -2.066406 0.710938 -1.941406 0.671875 -1.796875 C 0.628906 -1.648438 0.609375 -1.5 0.609375 -1.34375 C 0.609375 -1.238281 0.617188 -1.132812 0.640625 -1.03125 C 0.660156 -0.925781 0.691406 -0.820312 0.734375 -0.71875 C 0.785156 -0.625 0.851562 -0.539062 0.9375 -0.46875 C 1.019531 -0.40625 1.117188 -0.375 1.234375 -0.375 C 1.367188 -0.375 1.476562 -0.425781 1.5625 -0.53125 C 1.65625 -0.632812 1.71875 -0.753906 1.75 -0.890625 C 1.789062 -1.035156 1.8125 -1.1875 1.8125 -1.34375 C 1.8125 -1.46875 1.800781 -1.582031 1.78125 -1.6875 C 1.769531 -1.800781 1.742188 -1.90625 1.703125 -2 C 1.660156 -2.101562 1.597656 -2.179688 1.515625 -2.234375 C 1.441406 -2.296875 1.347656 -2.328125 1.234375 -2.328125 Z M 1.234375 -2.328125 "/></g></g></g><g fill="#102949" fill-opacity="1"><g transform="translate(34.314382, 5.084183)"><g><path d="M 1.71875 0 L 0.75 -1.984375 L 0.75 0 L 0.296875 0 L 0.296875 -2.640625 L 0.828125 -2.640625 L 1.671875 -0.875 L 1.671875 -2.640625 L 2.125 -2.640625 L 2.125 0 Z M 1.71875 0 "/></g></g></g><g fill="#102949" fill-opacity="1"><g transform="translate(36.754052, 5.084183)"><g><path d="M 0.203125 -1.890625 C 0.203125 -2.128906 0.273438 -2.320312 0.421875 -2.46875 C 0.578125 -2.625 0.789062 -2.703125 1.0625 -2.703125 C 1.507812 -2.703125 1.796875 -2.519531 1.921875 -2.15625 L 1.53125 -2.015625 C 1.488281 -2.109375 1.4375 -2.175781 1.375 -2.21875 C 1.3125 -2.269531 1.21875 -2.296875 1.09375 -2.296875 C 0.976562 -2.296875 0.882812 -2.269531 0.8125 -2.21875 C 0.738281 -2.175781 0.703125 -2.097656 0.703125 -1.984375 C 0.703125 -1.878906 0.722656 -1.800781 0.765625 -1.75 C 0.816406 -1.707031 0.921875 -1.671875 1.078125 -1.640625 C 1.109375 -1.640625 1.148438 -1.628906 1.203125 -1.609375 C 1.265625 -1.597656 1.328125 -1.582031 1.390625 -1.5625 C 1.460938 -1.539062 1.535156 -1.507812 1.609375 -1.46875 C 1.691406 -1.425781 1.757812 -1.378906 1.8125 -1.328125 C 1.875 -1.273438 1.921875 -1.203125 1.953125 -1.109375 C 1.992188 -1.023438 2.015625 -0.929688 2.015625 -0.828125 C 2.015625 -0.679688 1.988281 -0.550781 1.9375 -0.4375 C 1.882812 -0.320312 1.8125 -0.234375 1.71875 -0.171875 C 1.625 -0.109375 1.519531 -0.0625 1.40625 -0.03125 C 1.289062 0 1.164062 0.015625 1.03125 0.015625 C 0.800781 0.015625 0.601562 -0.0351562 0.4375 -0.140625 C 0.269531 -0.242188 0.15625 -0.398438 0.09375 -0.609375 C 0.382812 -0.703125 0.539062 -0.75 0.5625 -0.75 C 0.601562 -0.613281 0.664062 -0.519531 0.75 -0.46875 C 0.832031 -0.414062 0.945312 -0.390625 1.09375 -0.390625 C 1.144531 -0.390625 1.203125 -0.394531 1.265625 -0.40625 C 1.328125 -0.425781 1.382812 -0.460938 1.4375 -0.515625 C 1.5 -0.566406 1.53125 -0.632812 1.53125 -0.71875 C 1.53125 -0.757812 1.523438 -0.796875 1.515625 -0.828125 C 1.503906 -0.859375 1.488281 -0.882812 1.46875 -0.90625 C 1.457031 -0.9375 1.4375 -0.960938 1.40625 -0.984375 C 1.382812 -1.003906 1.359375 -1.019531 1.328125 -1.03125 C 1.304688 -1.039062 1.273438 -1.050781 1.234375 -1.0625 C 1.203125 -1.070312 1.171875 -1.078125 1.140625 -1.078125 C 1.109375 -1.085938 1.082031 -1.097656 1.0625 -1.109375 C 0.925781 -1.140625 0.8125 -1.171875 0.71875 -1.203125 C 0.632812 -1.234375 0.546875 -1.273438 0.453125 -1.328125 C 0.367188 -1.390625 0.304688 -1.46875 0.265625 -1.5625 C 0.222656 -1.65625 0.203125 -1.765625 0.203125 -1.890625 Z M 0.203125 -1.890625 "/></g></g></g><g fill="#102949" fill-opacity="1"><g transform="translate(38.974677, 5.084183)"><g><path d="M 1.21875 -2.25 L 1.21875 0 L 0.765625 0 L 0.765625 -2.25 L 0.125 -2.25 L 0.125 -2.640625 L 1.859375 -2.640625 L 1.859375 -2.25 Z M 1.21875 -2.25 "/></g></g></g><g fill="#102949" fill-opacity="1"><g transform="translate(40.976262, 5.084183)"><g><path d="M 1.421875 -2.640625 C 1.691406 -2.640625 1.898438 -2.582031 2.046875 -2.46875 C 2.203125 -2.351562 2.28125 -2.144531 2.28125 -1.84375 C 2.28125 -1.71875 2.257812 -1.625 2.21875 -1.5625 C 2.175781 -1.5 2.085938 -1.410156 1.953125 -1.296875 C 2.148438 -1.171875 2.25 -0.984375 2.25 -0.734375 L 2.25 -0.484375 C 2.25 -0.328125 2.289062 -0.210938 2.375 -0.140625 L 2.375 0 L 1.90625 0 C 1.863281 -0.113281 1.835938 -0.203125 1.828125 -0.265625 C 1.816406 -0.328125 1.8125 -0.40625 1.8125 -0.5 L 1.8125 -0.671875 C 1.8125 -0.804688 1.785156 -0.910156 1.734375 -0.984375 C 1.679688 -1.054688 1.582031 -1.09375 1.4375 -1.09375 L 0.640625 -1.09375 L 0.640625 0 L 0.203125 0 L 0.203125 -2.640625 Z M 1.5 -1.46875 C 1.601562 -1.46875 1.6875 -1.492188 1.75 -1.546875 C 1.8125 -1.609375 1.84375 -1.722656 1.84375 -1.890625 C 1.84375 -2.148438 1.703125 -2.28125 1.421875 -2.28125 L 0.640625 -2.28125 L 0.640625 -1.46875 Z M 1.5 -1.46875 "/></g></g></g><g fill="#102949" fill-opacity="1"><g transform="translate(43.465024, 5.084183)"><g><path d="M 1.234375 0.015625 C 0.910156 0.015625 0.664062 -0.0507812 0.5 -0.1875 C 0.34375 -0.332031 0.265625 -0.5625 0.265625 -0.875 L 0.265625 -2.640625 L 0.765625 -2.640625 L 0.765625 -0.921875 C 0.765625 -0.710938 0.804688 -0.566406 0.890625 -0.484375 C 0.972656 -0.410156 1.101562 -0.375 1.28125 -0.375 C 1.445312 -0.375 1.5625 -0.410156 1.625 -0.484375 C 1.695312 -0.554688 1.734375 -0.703125 1.734375 -0.921875 L 1.734375 -2.640625 L 2.21875 -2.640625 L 2.21875 -0.875 C 2.21875 -0.59375 2.125 -0.375 1.9375 -0.21875 C 1.757812 -0.0625 1.523438 0.015625 1.234375 0.015625 Z M 1.234375 0.015625 "/></g></g></g><g fill="#102949" fill-opacity="1"><g transform="translate(45.904693, 5.084183)"><g><path d="M 1.28125 0.015625 C 0.9375 0.015625 0.664062 -0.113281 0.46875 -0.375 C 0.28125 -0.632812 0.1875 -0.957031 0.1875 -1.34375 C 0.1875 -1.738281 0.285156 -2.0625 0.484375 -2.3125 C 0.679688 -2.570312 0.953125 -2.703125 1.296875 -2.703125 C 1.847656 -2.703125 2.164062 -2.394531 2.25 -1.78125 L 1.78125 -1.75 C 1.769531 -1.914062 1.722656 -2.050781 1.640625 -2.15625 C 1.566406 -2.269531 1.445312 -2.328125 1.28125 -2.328125 C 1.175781 -2.328125 1.082031 -2.289062 1 -2.21875 C 0.925781 -2.15625 0.867188 -2.066406 0.828125 -1.953125 C 0.796875 -1.847656 0.769531 -1.738281 0.75 -1.625 C 0.726562 -1.519531 0.71875 -1.414062 0.71875 -1.3125 C 0.71875 -1.164062 0.734375 -1.019531 0.765625 -0.875 C 0.804688 -0.738281 0.875 -0.617188 0.96875 -0.515625 C 1.0625 -0.410156 1.175781 -0.359375 1.3125 -0.359375 C 1.457031 -0.359375 1.566406 -0.410156 1.640625 -0.515625 C 1.722656 -0.617188 1.78125 -0.742188 1.8125 -0.890625 L 2.25 -0.859375 C 2.207031 -0.578125 2.097656 -0.359375 1.921875 -0.203125 C 1.753906 -0.0546875 1.539062 0.015625 1.28125 0.015625 Z M 1.28125 0.015625 "/></g></g></g><g fill="#102949" fill-opacity="1"><g transform="translate(48.344362, 5.084183)"><g><path d="M 1.21875 -2.25 L 1.21875 0 L 0.765625 0 L 0.765625 -2.25 L 0.125 -2.25 L 0.125 -2.640625 L 1.859375 -2.640625 L 1.859375 -2.25 Z M 1.21875 -2.25 "/></g></g></g><g fill="#102949" fill-opacity="1"><g transform="translate(50.345948, 5.084183)"><g><path d="M 0.3125 0 L 0.3125 -2.640625 L 0.765625 -2.640625 L 0.765625 0 Z M 0.3125 0 "/></g></g></g><g fill="#102949" fill-opacity="1"><g transform="translate(51.456262, 5.084183)"><g><path d="M 1.203125 0.015625 C 0.960938 0.015625 0.757812 -0.0507812 0.59375 -0.1875 C 0.425781 -0.320312 0.304688 -0.488281 0.234375 -0.6875 C 0.160156 -0.894531 0.125 -1.125 0.125 -1.375 C 0.125 -1.539062 0.144531 -1.703125 0.1875 -1.859375 C 0.226562 -2.015625 0.296875 -2.15625 0.390625 -2.28125 C 0.484375 -2.414062 0.601562 -2.519531 0.75 -2.59375 C 0.894531 -2.664062 1.0625 -2.703125 1.25 -2.703125 C 1.40625 -2.703125 1.546875 -2.675781 1.671875 -2.625 C 1.796875 -2.570312 1.894531 -2.5 1.96875 -2.40625 C 2.039062 -2.320312 2.097656 -2.21875 2.140625 -2.09375 C 2.191406 -1.976562 2.222656 -1.859375 2.234375 -1.734375 C 2.253906 -1.617188 2.265625 -1.492188 2.265625 -1.359375 C 2.265625 -1.179688 2.242188 -1.007812 2.203125 -0.84375 C 2.160156 -0.6875 2.097656 -0.539062 2.015625 -0.40625 C 1.929688 -0.28125 1.816406 -0.175781 1.671875 -0.09375 C 1.535156 -0.0195312 1.378906 0.015625 1.203125 0.015625 Z M 1.234375 -2.328125 C 1.097656 -2.328125 0.976562 -2.273438 0.875 -2.171875 C 0.78125 -2.066406 0.710938 -1.941406 0.671875 -1.796875 C 0.628906 -1.648438 0.609375 -1.5 0.609375 -1.34375 C 0.609375 -1.238281 0.617188 -1.132812 0.640625 -1.03125 C 0.660156 -0.925781 0.691406 -0.820312 0.734375 -0.71875 C 0.785156 -0.625 0.851562 -0.539062 0.9375 -0.46875 C 1.019531 -0.40625 1.117188 -0.375 1.234375 -0.375 C 1.367188 -0.375 1.476562 -0.425781 1.5625 -0.53125 C 1.65625 -0.632812 1.71875 -0.753906 1.75 -0.890625 C 1.789062 -1.035156 1.8125 -1.1875 1.8125 -1.34375 C 1.8125 -1.46875 1.800781 -1.582031 1.78125 -1.6875 C 1.769531 -1.800781 1.742188 -1.90625 1.703125 -2 C 1.660156 -2.101562 1.597656 -2.179688 1.515625 -2.234375 C 1.441406 -2.296875 1.347656 -2.328125 1.234375 -2.328125 Z M 1.234375 -2.328125 "/></g></g></g><g clip-path="url(#ecd9bb0540)"><g fill="#102949" fill-opacity="1"><g transform="translate(53.895932, 5.084183)"><g><path d="M 1.71875 0 L 0.75 -1.984375 L 0.75 0 L 0.296875 0 L 0.296875 -2.640625 L 0.828125 -2.640625 L 1.671875 -0.875 L 1.671875 -2.640625 L 2.125 -2.640625 L 2.125 0 Z M 1.71875 0 "/></g></g></g></g></g></g></svg>