<svg width="127" height="24" viewBox="0 0 127 24" fill="none" xmlns="http://www.w3.org/2000/svg">
<path d="M11.0391 4.33084C11.124 2.85442 11.2089 1.42721 11.2938 0H0V1.55844C0.0696782 1.56613 0.139123 1.57382 0.208444 1.58151L0.442511 1.60753C0.885526 1.65679 1.32851 1.70604 1.80022 1.7553V16.093C1.25675 16.175 0.747258 16.257 0.2038 16.3555V17.9303H11.5485C11.5146 17.1757 11.4849 16.4293 11.4551 15.6829C11.4254 14.9365 11.3957 14.1901 11.3617 13.4354C10.9697 13.4193 10.59 13.4072 10.2125 13.3951C9.82133 13.3826 9.43259 13.3701 9.03504 13.3534C9.00032 13.6505 8.9656 13.9419 8.9313 14.2298C8.84816 14.9277 8.76751 15.6047 8.69538 16.2899H5.23081V9.51472H6.70835C6.82723 10.0069 6.96309 10.499 7.09896 10.9419H8.61046V6.54547H7.06499C6.94611 7.03761 6.82723 7.49694 6.70835 7.95627H5.21383V1.57485H8.66141C8.68688 2.02597 8.71236 2.4689 8.73783 2.91183C8.76331 3.35476 8.78878 3.79769 8.81426 4.24882C9.18899 4.2649 9.55147 4.27704 9.91172 4.28911C10.2862 4.30165 10.6582 4.31412 11.0391 4.33084Z" fill="#797E8A"/>
<path fill-rule="evenodd" clip-rule="evenodd" d="M51.4976 23.4272V23.4275C51.4861 23.6113 51.4743 23.8007 51.459 24H57.0804C57.0968 23.7939 57.1093 23.5955 57.1216 23.3992C57.1348 23.1892 57.1478 22.9816 57.1653 22.7696C56.6898 22.6712 56.2822 22.5892 55.8746 22.5072V17.7006C55.9595 17.717 56.0105 17.7334 56.0614 17.7498C56.8427 18.0943 57.6578 18.1599 58.507 18.0943C60.1544 17.9631 61.3432 17.1757 62.0055 15.6992C62.2093 15.2071 62.3622 14.6986 62.4641 14.1736C62.7528 12.7628 62.7358 11.3356 62.6169 9.92478C62.566 9.23578 62.4131 8.53039 62.2093 7.8742C61.7338 6.39778 60.7997 5.36428 59.1014 5.20024C57.7428 5.069 56.5539 5.4299 55.6369 6.44699C55.6282 6.45538 55.6195 6.46329 55.6108 6.47089C55.607 6.4742 55.6032 6.47747 55.5994 6.48068L55.5936 6.48558C55.5825 6.4948 55.5715 6.50369 55.5604 6.51258C55.535 6.5331 55.5095 6.55361 55.484 6.57822C55.3868 6.24969 55.2983 5.93794 55.2061 5.61296L55.2053 5.60998C55.1688 5.48156 55.1318 5.35107 55.0934 5.21664C53.8027 5.39709 52.5629 5.56114 51.3231 5.72519V7.00475C51.7429 7.07465 52.1502 7.13264 52.5453 7.18886C52.6138 7.19862 52.6819 7.20831 52.7497 7.21801V22.5072C52.3421 22.6056 51.9515 22.6876 51.5439 22.7696C51.5253 22.9855 51.5118 23.2014 51.4978 23.4254L51.4977 23.4263L51.4976 23.4272ZM58.8297 16.1094C57.8277 16.4374 56.8596 16.421 55.8576 16.0109V8.48117C55.8576 7.82499 56.2822 7.33285 56.9615 7.20161C57.0295 7.20161 57.0804 7.1852 57.1314 7.1688C58.2523 6.98834 58.9825 7.39846 59.3222 8.43196C59.475 8.90769 59.5769 9.41624 59.6109 9.90838C59.7128 11.3848 59.7468 12.8612 59.526 14.3212C59.4775 14.661 59.3856 15.0007 59.2938 15.3405L59.2938 15.3407L59.272 15.4213L59.2558 15.4815L59.2512 15.499L59.2391 15.5441L59.2304 15.577C59.2154 15.6342 59.2006 15.6913 59.1863 15.7485C59.1354 15.9289 59.0335 16.0437 58.8297 16.1094Z" fill="#797E8A"/>
<path d="M93.4753 16.3718C93.9508 16.4703 94.3754 16.5523 94.8 16.6343C94.7915 16.8558 94.7788 17.069 94.766 17.2823C94.7533 17.4955 94.7406 17.7088 94.7321 17.9303H90.4014C90.4014 17.8811 90.3971 17.8359 90.3929 17.7908C90.3886 17.7457 90.3844 17.7006 90.3844 17.6514C90.3844 16.7273 90.3863 15.8031 90.3882 14.879C90.3919 13.0308 90.3957 11.1825 90.3844 9.33423C90.3844 8.95692 90.2995 8.57961 90.1806 8.2187C90.0447 7.79218 89.6711 7.54611 89.2125 7.44769C88.771 7.34926 88.3294 7.38207 87.9218 7.54611C87.5652 7.69376 87.2765 7.97263 87.2765 8.38275V16.257C87.2765 16.275 87.2816 16.2881 87.289 16.307C87.2951 16.3226 87.3028 16.3422 87.3104 16.3718C87.701 16.4539 88.1086 16.5359 88.5842 16.6179C88.5662 16.8437 88.5529 17.0695 88.5394 17.3001L88.5394 17.3009L88.5394 17.3021C88.5274 17.5065 88.5152 17.7148 88.4992 17.9303H82.9288V16.6343C83.3533 16.5523 83.744 16.4703 84.1685 16.3718V7.34926L84.0158 7.3329L84.0149 7.33281L84.0144 7.33275L84.0139 7.33269C83.6033 7.28881 83.1793 7.24349 82.742 7.18521V5.85643C83.9478 5.69239 85.1536 5.52834 86.4103 5.34789C86.4881 5.60551 86.5586 5.86312 86.6266 6.11155L86.6272 6.11368L86.6281 6.1168C86.6635 6.24623 86.6983 6.37314 86.733 6.49622C86.8212 6.43234 86.9111 6.36327 87.0035 6.29238L87.0037 6.29223C87.1958 6.14474 87.3982 5.98937 87.6161 5.85643C88.8219 5.11822 90.1296 4.98699 91.4713 5.44632C92.5922 5.84003 93.1866 6.69307 93.3734 7.80859C93.4244 8.12028 93.4413 8.43197 93.4413 8.74365V15.8797C93.4753 16.0602 93.4753 16.2078 93.4753 16.3718Z" fill="#797E8A"/>
<path d="M17.8531 16.5359C17.5738 16.4812 17.2945 16.4265 17.0002 16.3718C16.9991 16.3627 16.9981 16.3536 16.9972 16.3445L16.9963 16.336L16.9948 16.3202L16.9939 16.3102C16.9913 16.2825 16.9891 16.2552 16.987 16.2278C16.9794 16.133 16.9719 16.0383 16.9492 15.9289V14.4525C16.9492 13.786 16.9511 13.1213 16.953 12.4572L16.953 12.4536V12.45C16.9568 11.1224 16.9605 9.79722 16.9492 8.46479C16.9492 8.21872 17.0341 8.03827 17.187 7.84141C17.5946 7.36568 18.155 7.34927 18.6985 7.39849C19.4627 7.4641 19.9043 7.90703 20.0232 8.62884C20.0741 8.94052 20.1081 9.25222 20.1081 9.5639V17.9139H24.4558V17.2413C24.4558 17.028 24.4728 16.8148 24.4897 16.6015C24.2605 16.5605 24.0439 16.5195 23.8274 16.4785C23.6108 16.4375 23.3943 16.3965 23.1651 16.3554V8.69445C23.1651 8.36636 23.1481 8.02186 23.0801 7.71017C22.8254 6.47982 22.0951 5.62677 20.8044 5.33149C19.3269 4.987 17.9682 5.26588 16.7964 6.23375C16.7391 6.28113 16.6819 6.33232 16.6266 6.38182L16.6263 6.38203C16.5668 6.43526 16.5095 6.48655 16.4567 6.52903C16.4352 6.45478 16.4142 6.38161 16.3936 6.30922C16.3705 6.22821 16.3479 6.1482 16.3255 6.06877L16.3252 6.06775C16.257 5.82637 16.1902 5.59024 16.117 5.3479C14.8433 5.52835 13.6375 5.6924 12.4317 5.85644V7.18522C12.9072 7.23444 13.3828 7.28365 13.8413 7.33287C13.9432 7.79219 13.9092 16.0766 13.8243 16.3718L13.824 16.3719C13.4335 16.4539 13.043 16.5359 12.6355 16.6179C12.6266 16.8595 12.6129 17.0874 12.5996 17.3113C12.5875 17.5131 12.5756 17.7117 12.5676 17.9139H18.189C18.206 17.6924 18.2187 17.4791 18.2315 17.2658L18.2315 17.2656L18.2317 17.2631C18.2443 17.0508 18.257 16.8384 18.2739 16.6179C18.1328 16.5907 17.9935 16.5634 17.8543 16.5361L17.8531 16.5359Z" fill="#797E8A"/>
<path d="M113.363 7.02114C113.113 6.99528 112.867 6.97394 112.619 6.95238L112.619 6.95232C112.395 6.93287 112.169 6.91323 111.936 6.88991V5.72517C112.561 5.65896 113.185 5.58945 113.813 5.51959L113.814 5.51944L113.817 5.51914L113.82 5.51875L113.829 5.51773C114.596 5.43245 115.367 5.34667 116.148 5.26584C116.171 5.33666 116.195 5.40653 116.219 5.47574C116.366 5.90359 116.504 6.30682 116.504 6.75866C116.493 8.79141 116.497 10.8242 116.501 12.852V12.86C116.503 13.8734 116.504 14.8857 116.504 15.8961V16.3882C116.963 16.4702 117.371 16.5523 117.812 16.6507C117.787 16.8722 117.765 17.0854 117.744 17.2987C117.723 17.512 117.702 17.7252 117.676 17.9467H114.059C114.008 17.791 113.953 17.6312 113.896 17.4652L113.895 17.4647C113.838 17.2986 113.779 17.1264 113.719 16.946C113.6 17.028 113.515 17.0936 113.43 17.1592C111.953 18.4552 109.966 18.324 108.709 17.7334C107.724 17.2741 107.198 16.4866 107.028 15.4695C106.96 15.1415 106.943 14.797 106.943 14.4525V7.05395C106.615 7.02116 106.302 6.98838 105.989 6.9556C105.832 6.93917 105.675 6.92274 105.516 6.90631V5.74158C106.527 5.63307 107.538 5.5157 108.57 5.39598C108.941 5.35281 109.316 5.30932 109.694 5.26584C109.731 5.40706 109.775 5.54355 109.82 5.67877L109.82 5.67916L109.82 5.68168C109.92 5.98538 110.017 6.28256 110.017 6.61103V13.8291C110.017 14.1572 110.034 14.4853 110.085 14.8134C110.204 15.6992 110.798 16.2242 111.715 16.2406C112.038 16.2406 112.361 16.1914 112.683 16.1093C113.023 16.0273 113.464 15.4531 113.464 15.1251V7.16878C113.413 7.11957 113.396 7.08676 113.363 7.02114Z" fill="#797E8A"/>
<path fill-rule="evenodd" clip-rule="evenodd" d="M45.1921 15.1743C44.6317 14.3705 44.4619 13.4682 44.4619 12.4511C46.6187 12.4183 48.7077 12.4019 50.8475 12.3855C50.8794 12.2881 50.9195 12.1907 50.9596 12.0933C51.0479 11.879 51.1362 11.6647 51.1362 11.4504C51.1362 10.5154 51.0343 9.5803 50.7626 8.66164C50.4909 7.75938 50.1003 6.93915 49.404 6.28296C48.2151 5.18385 46.7886 5.00339 45.2601 5.31508C43.6467 5.64318 42.5937 6.61106 41.9144 8.02185C41.4898 8.8913 41.286 9.79356 41.2011 10.745C41.0652 12.2871 41.2181 13.7963 41.9144 15.2235C42.5428 16.5195 43.4938 17.4873 44.9544 17.8975C46.7036 18.3896 48.351 18.1107 49.9135 17.2905C50.0768 17.2169 50.2193 17.1162 50.3631 17.0146C50.4436 16.9577 50.5245 16.9005 50.6098 16.8476C50.423 16.4375 50.2531 16.0602 50.0833 15.6828L50.0828 15.683L50.0814 15.6834C49.9296 15.7323 49.8281 15.7651 49.7266 15.8141C48.9454 16.1258 48.1472 16.2898 47.2981 16.2734C46.3979 16.257 45.7016 15.8797 45.1921 15.1743ZM48.2983 10.3891C48.3089 10.527 48.32 10.6714 48.334 10.8271C47.0093 10.8927 45.7356 10.9419 44.4619 10.9911C44.4586 10.972 44.4546 10.9541 44.4504 10.9371C44.4478 10.9265 44.4451 10.9162 44.4423 10.9062C44.4403 10.8989 44.4383 10.8917 44.4363 10.8845C44.423 10.8369 44.4109 10.7939 44.4109 10.745C44.4619 9.66232 44.6657 8.61242 45.0902 7.59534C45.2261 7.30004 45.4299 7.1196 45.7526 7.02117C46.5678 6.7751 47.1961 6.98836 47.6207 7.71016C48.0113 8.36635 48.1642 9.08816 48.2491 9.82637C48.2691 10.0095 48.2832 10.1925 48.2983 10.3889V10.3891Z" fill="#797E8A"/>
<path fill-rule="evenodd" clip-rule="evenodd" d="M101.79 12.4094L101.787 12.4094C100.707 12.422 99.6346 12.4344 98.5532 12.4511C98.5023 12.894 98.5702 13.3042 98.6551 13.7143C98.774 14.3377 99.0118 14.9118 99.4533 15.404C99.9458 15.9617 100.557 16.2406 101.304 16.257C102.12 16.2898 102.901 16.1422 103.665 15.8469C103.818 15.7813 103.971 15.7321 104.175 15.6664L104.176 15.6684L104.176 15.6693C104.345 16.0457 104.515 16.4221 104.701 16.8476C104.688 16.8569 104.675 16.8657 104.662 16.8741C104.651 16.8812 104.64 16.8881 104.629 16.8948C104.619 16.901 104.609 16.9071 104.599 16.9132C104.581 16.924 104.563 16.9348 104.546 16.9462C104.53 16.9564 104.513 16.9672 104.497 16.9788C103.139 17.8975 101.61 18.2584 99.9968 18.0779C97.9928 17.8647 96.6511 16.7327 95.9208 14.961C94.9868 12.6808 95.0207 10.3677 95.9888 8.08748C96.6171 6.62746 97.7041 5.62677 99.3514 5.28227C100.642 5.0198 101.882 5.10182 103.003 5.84003C103.801 6.36499 104.294 7.136 104.633 7.98904C105.075 9.08816 105.245 10.2365 105.211 11.4012C105.199 11.6354 105.117 11.8612 105.035 12.0907L105.034 12.0915C105.02 12.1298 105.007 12.1682 104.993 12.2068C104.985 12.2286 104.978 12.2505 104.97 12.2724C104.965 12.2879 104.96 12.3034 104.955 12.3189C104.949 12.3356 104.944 12.3523 104.939 12.3691C103.874 12.3852 102.829 12.3973 101.79 12.4094ZM102.391 10.8271C102.357 9.97402 102.256 9.17018 102.001 8.39916C101.865 8.00545 101.678 7.66095 101.406 7.33286C100.897 6.70948 99.3514 6.82431 99.1137 7.69376C99.0586 7.89671 98.9977 8.09965 98.9365 8.30344C98.79 8.7915 98.6421 9.28437 98.5702 9.79356C98.5616 9.85992 98.5521 9.92581 98.5425 9.99164C98.4955 10.3163 98.4487 10.6392 98.5193 11.0075C99.1993 10.9729 99.87 10.9429 100.546 10.9126C101.153 10.8855 101.765 10.8581 102.391 10.8271Z" fill="#797E8A"/>
<path fill-rule="evenodd" clip-rule="evenodd" d="M79.049 12.4097C80.0975 12.3976 81.1502 12.3854 82.2154 12.3692C82.2463 12.2748 82.2849 12.1789 82.3238 12.0824C82.4133 11.8603 82.5041 11.6349 82.5041 11.4177C82.5041 10.1709 82.3343 8.95699 81.8248 7.80867C81.4342 6.92281 80.8737 6.1682 79.9736 5.69246C78.615 4.97066 77.1884 5.03627 75.7958 5.56122C74.607 6.02055 73.8257 6.90641 73.2993 8.00552C72.8407 8.94059 72.6369 9.94127 72.569 10.9748C72.4501 12.5004 72.6539 13.9932 73.3842 15.3876C74.0975 16.7492 75.2014 17.7007 76.7808 17.996C78.4621 18.3241 80.0755 18.0124 81.5361 17.1265C81.6125 17.0773 81.6846 17.024 81.7568 16.9707L81.757 16.9705C81.8291 16.9173 81.9013 16.864 81.9777 16.8148C81.8657 16.5691 81.7599 16.3351 81.6565 16.1059C81.5873 15.9526 81.5192 15.8013 81.4512 15.6501C81.3489 15.695 81.2567 15.7301 81.1692 15.7635L81.1688 15.7636C81.0967 15.791 81.0277 15.8173 80.9587 15.847C80.1774 16.1587 79.3792 16.2899 78.5471 16.2571C77.8168 16.2407 77.2054 15.9454 76.7468 15.404C76.0166 14.5674 75.8467 13.5667 75.8298 12.4512C76.9043 12.4346 77.9744 12.4222 79.049 12.4097ZM79.6591 10.4905C79.6671 10.5995 79.6753 10.7114 79.6849 10.8271C78.9873 10.8617 78.3038 10.8917 77.6145 10.922L77.6109 10.9221C76.9926 10.9492 76.3697 10.9766 75.7279 11.0076C75.7415 10.8561 75.7524 10.7179 75.7627 10.5865L75.7628 10.5854C75.7782 10.3899 75.7925 10.2095 75.8128 10.0233C75.9316 9.15385 76.1185 8.30081 76.4921 7.49697C76.594 7.28371 76.7468 7.15248 76.9676 7.07045C77.8338 6.74236 78.5301 6.95562 78.9886 7.74304C79.3453 8.35002 79.4981 9.02262 79.583 9.6952C79.6196 9.95423 79.6387 10.2133 79.6591 10.4905Z" fill="#797E8A"/>
<path d="M36.0553 5.34799C36.1062 5.53672 36.153 5.72134 36.1997 5.90597C36.2464 6.09045 36.2931 6.27493 36.344 6.46351C36.4204 6.4225 36.4968 6.37738 36.5733 6.33227L36.5735 6.33215C36.6498 6.28709 36.7262 6.24201 36.8025 6.20104C37.7026 5.6925 38.6707 5.46283 39.7066 5.34799C40.1992 5.29878 40.5558 5.44643 40.8445 5.85654C40.7531 6.68962 40.6515 7.54213 40.5477 8.41406L40.5475 8.41544C40.5165 8.67625 40.4852 8.9388 40.4539 9.20309C40.0982 9.18672 39.7552 9.17445 39.4123 9.16217L39.4066 9.16199H39.406C39.0632 9.14972 38.7205 9.13744 38.365 9.12107C38.2801 8.5141 38.2121 7.92353 38.1442 7.33297C37.6347 7.36577 37.2101 7.51341 36.8195 7.77588V16.3883C37.1138 16.4566 37.3999 16.5169 37.7005 16.5803C37.8336 16.6084 37.9695 16.637 38.1102 16.6672C38.102 16.875 38.0897 17.0749 38.0773 17.2766C38.0642 17.489 38.051 17.7032 38.0423 17.9304H32.4888V16.6836C32.8794 16.5852 33.27 16.4868 33.6437 16.4047V7.36577C33.4961 7.34993 33.352 7.33409 33.2091 7.31825C33.1301 7.30948 33.0515 7.30071 32.9728 7.29195C32.8138 7.27422 32.6547 7.25649 32.4925 7.23877L32.302 7.21813V5.88935C33.2675 5.73391 34.2436 5.59893 35.2471 5.46017L35.2616 5.45816C35.5242 5.42186 35.7886 5.38527 36.0553 5.34799Z" fill="#797E8A"/>
<path d="M118.644 16.6672C118.61 17.0773 118.593 17.4874 118.576 17.9303C120.461 17.9303 122.296 17.9303 124.198 17.8811C124.215 17.6677 124.228 17.4584 124.24 17.2491C124.253 17.0401 124.266 16.8311 124.283 16.6179C124.112 16.5813 123.946 16.5447 123.784 16.5089C123.511 16.4485 123.248 16.3906 122.992 16.3391V7.66098C123.417 7.51333 123.841 7.3657 124.3 7.21805C124.331 7.46113 124.36 7.69519 124.389 7.92443L124.389 7.92612C124.437 8.31511 124.484 8.6902 124.537 9.07178C124.886 9.08818 125.23 9.10048 125.573 9.11278C125.917 9.12509 126.261 9.13739 126.609 9.1538C126.645 8.85604 126.68 8.56047 126.715 8.2674C126.815 7.43027 126.912 6.61346 127 5.82365C126.694 5.38072 126.304 5.23309 125.811 5.33151C125.644 5.36473 125.477 5.39383 125.311 5.42279L125.31 5.42288C124.902 5.49398 124.499 5.56422 124.113 5.69242C123.739 5.81266 123.381 5.98388 123.028 6.15272L123.027 6.15296C122.85 6.23741 122.675 6.32127 122.499 6.39782C122.458 6.24438 122.416 6.07902 122.372 5.90567C122.327 5.72684 122.28 5.53949 122.228 5.34791C120.971 5.52837 119.731 5.69242 118.441 5.85646V7.18524C118.856 7.24059 119.235 7.28427 119.598 7.32613C119.666 7.33389 119.733 7.34159 119.799 7.34929V16.3883C119.661 16.4216 119.529 16.4531 119.399 16.484C119.146 16.5442 118.902 16.6021 118.644 16.6672Z" fill="#797E8A"/>
<path d="M68.6718 7.54096L68.6699 7.54162C68.4925 7.60482 68.3215 7.66571 68.1534 7.72659V16.3883C68.3727 16.4371 68.5878 16.482 68.8028 16.5268L68.8117 16.5286C69.0267 16.5734 69.2418 16.6183 69.4611 16.6671C69.4523 16.7777 69.4435 16.8872 69.4347 16.9961C69.4234 17.1354 69.4122 17.2737 69.4009 17.4124C69.387 17.5838 69.3731 17.7557 69.3592 17.9303H63.8057V16.6836L64.9776 16.3883V7.34929C64.8436 7.33491 64.7111 7.32053 64.5792 7.30616C64.4854 7.29593 64.3918 7.2857 64.2982 7.27546L64.284 7.2739C64.0637 7.24982 63.8433 7.22573 63.6189 7.20164V5.87286C64.8587 5.70882 66.0815 5.54477 67.3892 5.36431C67.4401 5.54471 67.4953 5.72511 67.5505 5.90551C67.6057 6.08601 67.6609 6.26652 67.7118 6.44703C67.8624 6.37433 68.0074 6.29896 68.1513 6.22415L68.1516 6.22403C68.3649 6.1132 68.5758 6.00359 68.7988 5.90568C69.4781 5.59398 70.2254 5.47915 70.9726 5.36431C71.4651 5.2987 71.8557 5.41354 72.1784 5.85645C72.139 6.20969 72.0978 6.56833 72.0559 6.93236L72.0551 6.93933L72.055 6.94008C71.9708 7.67252 71.884 8.42684 71.8048 9.20301C71.4626 9.19495 71.1245 9.18293 70.7845 9.17084C70.4326 9.15833 70.0786 9.14574 69.7159 9.13739C69.6608 8.72238 69.6129 8.33498 69.5628 7.93041C69.5357 7.71132 69.5079 7.48711 69.4781 7.25085C69.1894 7.35663 68.9241 7.4511 68.6718 7.54096Z" fill="#797E8A"/>
<path d="M28.9393 5.51191V2.96918C28.5022 2.98882 28.0834 3.00845 27.6647 3.02809C27.3837 3.04126 27.1028 3.05444 26.8164 3.06761C26.6767 3.53983 26.5312 4.01206 26.3867 4.48097C26.2852 4.81024 26.1842 5.13787 26.0861 5.4627C25.8123 5.47826 25.55 5.49012 25.2918 5.5018C25.0056 5.51475 24.7245 5.52747 24.4388 5.54472C24.4297 5.84155 24.4159 6.1198 24.4023 6.39182C24.3904 6.63094 24.3788 6.86526 24.3708 7.10317C24.5919 7.13876 24.8035 7.17127 25.0123 7.20337C25.2847 7.24523 25.5526 7.2864 25.8314 7.33283C25.8484 7.48047 25.8653 7.62812 25.8653 7.77575V15.1579C25.8653 15.4039 25.8653 15.65 25.8993 15.8961C26.0352 17.0772 26.8334 17.8646 28.0392 18.0615C28.8374 18.1927 29.6186 18.1435 30.3998 17.9959C30.7565 17.9302 31.1131 17.8646 31.4528 17.6514C31.4247 17.4159 31.4017 17.1804 31.3782 16.9394C31.3592 16.7439 31.3398 16.5447 31.3169 16.339C31.1545 16.339 30.9979 16.3409 30.8453 16.3428C30.5513 16.3464 30.2718 16.3498 29.9923 16.339C29.4658 16.3226 29.0921 15.9945 29.0242 15.486C29.0072 15.3219 29.0072 15.1579 29.0072 14.9938C28.9902 12.5495 28.9902 10.1052 28.9902 7.66092C28.9902 7.55899 29.0036 7.46998 29.0185 7.37094L29.0242 7.33283C29.3993 7.28864 29.7646 7.24921 30.1333 7.20942C30.449 7.17535 30.7671 7.141 31.0962 7.10317C31.1089 6.9717 31.1217 6.84126 31.1344 6.71081C31.1726 6.32041 31.2108 5.92999 31.249 5.51191H28.9393Z" fill="#797E8A"/>
</svg>
