<svg width="102" height="18" viewBox="0 0 102 18" fill="none" xmlns="http://www.w3.org/2000/svg">
<path d="M15.0345 5.98083V17.655H19.4778V0H13.3299L9.75288 9.74761L6.14794 0H0V17.655H4.41534V5.98083L8.77479 17.655H10.731L15.0345 5.98083Z" fill="#797E8A"/>
<path fill-rule="evenodd" clip-rule="evenodd" d="M28.2526 16.3899V17.6838H32.2488V9.69021C32.2488 5.72216 29.4542 4.572 26.4641 4.572C24.5638 4.572 22.412 5.14708 20.8192 6.55603L22.2723 9.37392C23.2783 8.48254 24.5079 7.99373 25.7375 7.99373C27.3304 7.99373 28.2526 8.74133 28.2526 9.86274V11.1279C27.4981 10.179 26.0449 9.6327 24.3961 9.6327C22.4959 9.6327 20.1205 10.6679 20.1205 13.7733C20.1205 16.6199 22.4959 17.9714 24.3961 17.9714C25.989 17.9714 27.4701 17.3388 28.2526 16.3899ZM28.2526 13.2269V14.3771C27.8614 14.9809 26.9112 15.2973 26.0449 15.2973C25.0109 15.2973 24.0608 14.8372 24.0608 13.8308C24.0608 12.8244 25.0109 12.3356 26.0449 12.3356C26.9112 12.3356 27.8334 12.6231 28.2526 13.2269Z" fill="#797E8A"/>
<path d="M32.5002 15.9872L34.149 13.0831C35.0712 13.9169 37.0553 14.8083 38.5084 14.8083C39.6821 14.8083 40.1851 14.4633 40.1851 13.9169C40.1851 13.354 39.2714 13.1991 38.0946 12.9996C35.9656 12.6388 32.9753 12.1319 32.9753 8.79872C32.9753 6.55591 34.8755 4.60064 38.2849 4.60064C40.4087 4.60064 42.1413 5.29074 43.4827 6.29713L41.9736 9.17253C41.2191 8.42492 39.8218 7.76358 38.3128 7.76358C37.3906 7.76358 36.7758 8.13738 36.7758 8.6262C36.7758 9.10753 37.6172 9.25328 38.7252 9.44521C40.8604 9.81509 43.9857 10.3565 43.9857 13.8019C43.9857 16.246 41.9177 17.9713 38.3687 17.9713C36.1051 17.9713 33.8136 17.1949 32.5002 15.9872Z" fill="#797E8A"/>
<path d="M52.9003 10.2077V17.655H56.8405V8.56869C56.8405 6.21086 55.5551 4.57189 52.7326 4.57189C50.6367 4.57189 49.1836 5.54952 48.429 6.4409V0H44.4608V17.6262H48.429V9.3738C48.9041 8.79872 49.6866 8.13738 50.8323 8.13738C52.0899 8.13738 52.9003 8.65495 52.9003 10.2077Z" fill="#797E8A"/>
<path fill-rule="evenodd" clip-rule="evenodd" d="M65.5314 16.3899C64.749 17.3388 63.2679 17.9714 61.675 17.9714C59.7747 17.9714 57.3994 16.6199 57.3994 13.7733C57.3994 10.6679 59.7747 9.6327 61.675 9.6327C63.3238 9.6327 64.7769 10.179 65.5314 11.1279V9.86274C65.5314 8.74133 64.6093 7.99373 63.0164 7.99373C61.7868 7.99373 60.5572 8.48254 59.5512 9.37392L58.098 6.55603C59.6909 5.14708 61.8427 4.572 63.743 4.572C66.7331 4.572 69.5276 5.72216 69.5276 9.69021V17.6838H65.5314V16.3899ZM65.5314 14.3771V13.2269C65.1123 12.6231 64.1901 12.3356 63.3238 12.3356C62.2898 12.3356 61.3397 12.8244 61.3397 13.8308C61.3397 14.8372 62.2898 15.2973 63.3238 15.2973C64.218 15.2973 65.1402 14.9809 65.5314 14.3771Z" fill="#797E8A"/>
<path fill-rule="evenodd" clip-rule="evenodd" d="M70.869 0V17.655H74.8372V16.1885C75.8712 17.4249 77.1288 18 78.526 18C81.6 18 84.0033 15.6134 84.0033 11.2716C84.0033 7.07348 81.6279 4.57189 78.526 4.57189C77.1567 4.57189 75.8153 5.11821 74.8372 6.38339V0H70.869ZM79.9233 11.2716C79.9233 13.1981 78.7496 14.377 77.1846 14.377C76.3463 14.377 75.3123 13.9169 74.8093 13.2268V9.34505C75.3123 8.65495 76.3463 8.16614 77.1846 8.16614C78.7496 8.16614 79.9233 9.3738 79.9233 11.2716Z" fill="#797E8A"/>
<path d="M88.5024 0H84.5342V17.655H88.5024V0Z" fill="#797E8A"/>
<path fill-rule="evenodd" clip-rule="evenodd" d="M95.6564 4.54308C91.772 4.54308 89.0614 7.5335 89.0614 11.2428C89.0614 15.4121 91.9956 17.9712 95.8521 17.9712C97.7523 17.9712 99.8203 17.4249 101.05 16.2747L99.3172 13.6006C98.5907 14.2907 97.1375 14.6933 96.2712 14.6933C94.4827 14.6933 93.4488 13.7444 93.1693 12.5942H102V11.6741C102 7.33222 99.3452 4.54308 95.6564 4.54308ZM93.1134 9.80506C93.2532 8.88492 93.9238 7.82104 95.6564 7.82104C97.4729 7.82104 98.1156 8.91369 98.2274 9.80506H93.1134Z" fill="#797E8A"/>
</svg>
