<svg width="120" height="20" viewBox="0 0 120 20" fill="none" xmlns="http://www.w3.org/2000/svg">
<path fill-rule="evenodd" clip-rule="evenodd" d="M14.3044 4.38356V0.547945L14.2361 0.479452H0.238976V0.616438C0.716927 0.684932 1.94595 1.64384 1.94595 3.15068V16.5753C1.94595 19.1096 0.648649 19.3836 0.102418 19.6575C-0.0341394 19.6575 -0.0341394 19.7945 0.102418 19.7945H7.13514C7.20341 19.7945 7.20341 19.6575 7.13514 19.6575C5.9744 19.0411 5.01849 18.6986 5.01849 16.5068V10.137H9.86629C11.027 10.137 12.256 11.4384 12.734 12.4658H12.8706V6.36986H12.734C12.5292 7.53425 11.0953 8.69863 9.86629 8.69863H5.08677V1.9863H10.6174C12.256 1.9863 13.7582 3.28767 14.1679 4.45205C14.1679 4.52055 14.3044 4.52055 14.3044 4.38356ZM49.6046 17.3288L45.7127 10.6164C46.2589 10.4795 46.8734 10.2055 47.5562 9.86301C50.9701 7.80822 50.3556 3.49315 48.5804 2.05479C47.2831 1.0274 46.532 0.547945 44.0057 0.479452H34.4467V0.547945C35.8805 1.0274 36.4267 1.64384 36.495 3.08219V16.5753C36.495 19.1096 35.3343 19.0411 34.5149 19.6575V19.863H41.3428V19.726C39.909 19.0411 39.4993 18.6301 39.4993 16.5753V10.9589H42.7084L47.4196 19.863H52.0626V19.5205C51.2432 19.3836 50.7653 19.2466 49.6046 17.3288ZM42.845 9.52055H39.431V1.84932H43.2546C47.6245 1.84932 48.0341 9.52055 42.845 9.52055ZM98.7653 0.616438C100.131 1.30137 100.609 1.71233 100.609 3.76712V13.6986L90.0256 0.479452H85.6558V0.616438C87.0213 1.30137 87.4993 1.71233 87.4993 3.76712H87.431V15.7534C87.431 18.2877 86.4751 19.0411 85.6558 19.6575V19.863H91.1181V19.726C89.6842 19.0411 89.0697 18.4247 89.0697 16.2329V4.65753L101.36 19.863H102.179V3.76712C102.179 1.23288 103.203 1.23288 104.023 0.684932V0.479452H98.9019V0.616438H98.7653ZM79.5107 0.616438C80.8763 1.30137 81.3542 1.71233 81.3542 3.76712V14.589C81.3542 16.6438 80.0569 18.5616 76.7795 18.5616C73.1607 18.5616 71.8634 16.2329 71.8634 14.5205V3.76712C71.8634 1.23288 72.8194 1.23288 73.6387 0.684932V0.479452H66.8791V0.616438C68.2447 1.30137 68.7226 1.71233 68.7226 3.76712V13.9726C68.7226 16.0274 69.8151 20 76.7795 20C81.9004 20 83.1977 16.5753 83.1977 13.9041L83.1294 3.69863C83.1294 1.16438 84.1536 1.16438 84.973 0.616438V0.479452H79.5789V0.616438H79.5107ZM119.863 15C119.181 17.1918 116.996 18.4247 113.855 18.4247C110.304 18.4247 109.758 17.3288 109.622 16.5068V10.274H113.991C116.518 10.274 116.791 11.3014 117.405 12.1233H117.542V7.05479H117.405C116.723 8.35616 116.108 8.83562 114.265 8.90411H109.69V1.78082H114.811C116.176 1.78082 118.566 3.21918 118.839 4.45205H118.908V0.479452H104.637V0.616438C105.935 1.23288 106.413 1.64384 106.481 3.08219V16.9863C106.413 18.4932 105.935 19.0411 104.637 19.6575V19.863H119.112L120 15H119.863ZM65.1038 0.479452H52.8137C52.404 0.410959 51.9943 0.342466 51.926 0.0684932L51.0384 4.79452L51.1067 4.86301C52.6771 2.26027 53.0868 1.78082 57.3883 1.78082V16.4384C57.3883 18.9726 56.091 19.0411 55.34 19.726V19.863H62.6458V19.726C61.8265 19.1096 60.5974 19.0411 60.5974 16.4384V1.78082C64.899 1.78082 65.2404 2.26027 66.9474 4.86301V4.79452L65.9915 0.136986C65.8549 0.342466 65.5135 0.410959 65.1038 0.479452ZM24.6828 0C18.8791 0 14.2361 4.45205 14.2361 10C14.2361 15.5479 18.8791 20 24.6828 20C30.4865 20 35.1294 15.5479 35.1294 10C35.1977 4.45205 30.4865 0 24.6828 0ZM24.6828 18.7671C20.9275 18.7671 17.8549 14.7945 17.8549 10C17.8549 5.20548 20.9275 1.36986 24.6828 1.36986C28.5064 1.36986 31.5107 5.27397 31.5107 10C31.5107 14.7945 28.5064 18.7671 24.6828 18.7671Z" fill="#797E8A"/>
</svg>
