<svg width="116" height="24" viewBox="0 0 116 24" fill="none" xmlns="http://www.w3.org/2000/svg">
<path d="M0 0H11.784V11.4171H0V0Z" fill="#797E8A"/>
<path d="M12.9872 0H24.7712V11.4171H12.9872V0Z" fill="#797E8A"/>
<path d="M109.977 3.9223C108.753 3.6 107.351 3.66174 106.261 4.34746C105.568 4.78634 105.058 5.47888 104.832 6.23317C104.645 6.82902 104.653 7.44475 104.661 8.05962L104.662 8.18893L104.663 8.28978C104.665 8.4825 104.664 8.67489 104.655 8.86634C104.06 8.86634 103.473 8.85944 102.885 8.87317C102.89 9.31473 102.889 9.75321 102.887 10.1907V10.1979C102.886 10.4171 102.885 10.636 102.885 10.8549C103.002 10.8562 103.118 10.8568 103.234 10.8569C103.372 10.8571 103.511 10.8567 103.649 10.8562L103.886 10.8555L104.063 10.8554L104.186 10.8557C104.345 10.8564 104.504 10.8581 104.662 10.8617C104.657 12.7083 104.659 14.558 104.66 16.4087L104.661 17.3429C104.662 17.9574 104.662 18.5719 104.662 19.1863H107.21V10.8549H110.94C110.94 11.4446 110.939 12.0343 110.938 12.624C110.936 13.8034 110.935 14.9829 110.94 16.1623C110.954 16.9921 111.095 17.8698 111.662 18.5212C112.15 19.0971 112.921 19.3578 113.672 19.4126C114.457 19.4675 115.271 19.3783 116 19.0698V17.0469C115.441 17.4103 114.669 17.5543 114.061 17.2252C113.693 17.0263 113.558 16.6149 113.509 16.2378C113.457 15.8172 113.462 15.3906 113.466 14.964C113.467 14.8823 113.468 14.8006 113.469 14.7191C113.469 14.6697 113.469 14.6204 113.469 14.5711C113.469 14.4889 113.468 14.4067 113.466 14.3246C113.466 13.9406 113.467 13.5567 113.468 13.1726L113.469 12.625C113.469 12.4332 113.469 12.2414 113.469 12.0496L113.469 11.7346L113.469 11.3921C113.468 11.2176 113.467 11.0431 113.466 10.8686C113.77 10.871 114.073 10.8691 114.375 10.8672C114.918 10.8637 115.459 10.8603 116 10.8823V8.88C115.773 8.88188 115.545 8.88221 115.316 8.88201L114.923 8.88134H114.922C114.443 8.8802 113.962 8.87906 113.48 8.8869C113.472 8.29507 113.473 7.70551 113.475 7.1169C113.476 6.67567 113.476 6.23498 113.473 5.79429C113.226 5.86741 112.978 5.94174 112.729 6.01627C112.139 6.19319 111.546 6.37085 110.954 6.53491C110.94 7.02342 110.941 7.51192 110.942 8.00042L110.942 8.35701C110.942 8.53132 110.941 8.70569 110.94 8.88H107.21C107.214 8.76489 107.215 8.64951 107.214 8.534C107.214 8.431 107.213 8.32795 107.211 8.22489C107.205 7.82411 107.2 7.42346 107.259 7.02857C107.337 6.54857 107.62 6.06174 108.109 5.87658C108.717 5.62975 109.404 5.79429 109.984 6.04118C109.979 5.5265 109.981 5.01181 109.98 4.49712C109.98 4.30554 109.979 4.11388 109.977 3.9223Z" fill="#797E8A"/>
<path d="M51.7011 4.49143C52.2177 4.41596 52.7698 4.58739 53.1095 4.97826C53.5058 5.40342 53.5837 6.08223 53.2864 6.58286C52.9608 7.14509 52.2248 7.40571 51.5878 7.26857C50.9296 7.15199 50.3776 6.5554 50.4059 5.89025C50.3847 5.1977 50.9933 4.57366 51.7011 4.49143Z" fill="#797E8A"/>
<path d="M35.8758 4.8H32.1672C32.1672 9.6 32.1672 14.4 32.1743 19.1931H34.6018V12.7474C34.6044 12.1839 34.6032 11.6195 34.602 11.0549C34.6 10.0666 34.598 9.07761 34.616 8.09143C34.6331 8.11902 34.6501 8.14768 34.6672 8.17701C34.6926 8.22067 34.718 8.26574 34.7434 8.31087C35.1841 9.37145 35.6243 10.4326 36.0646 11.4941L36.0708 11.5092C37.1343 14.0729 38.1983 16.6382 39.273 19.2C39.5531 19.1938 39.8317 19.1946 40.1095 19.1954C40.4424 19.1964 40.7742 19.1975 41.106 19.1863C41.9078 17.2013 42.7201 15.2203 43.5325 13.239L43.5436 13.2121C44.2121 11.5817 44.8807 9.95109 45.5436 8.3177L45.5643 8.27806C45.5751 8.2579 45.5859 8.23815 45.5968 8.21859C45.6224 8.17299 45.649 8.12879 45.6781 8.08453C45.6852 8.24913 45.6923 8.40683 45.6923 8.56453C45.6887 10.3371 45.6887 12.1097 45.6887 13.8814C45.6887 15.6531 45.6887 17.424 45.6852 19.1931C46.3243 19.2033 46.9634 19.2021 47.6026 19.2008H47.6136C47.8272 19.2004 48.0407 19.2 48.2543 19.2V4.8C47.9143 4.8 47.5744 4.79886 47.2344 4.79772C46.3854 4.79491 45.5363 4.79216 44.6872 4.80683C43.7803 6.98471 42.8653 9.1575 41.9506 11.3298L41.0702 13.4214C40.7869 14.0948 40.5039 14.7684 40.2214 15.4423C40.0406 15.0227 39.8698 14.6008 39.6986 14.1778C39.5816 13.8887 39.4644 13.5992 39.3437 13.3097L37.6082 9.05109C37.0302 7.6346 36.4521 6.21817 35.8758 4.8Z" fill="#797E8A"/>
<path d="M58.7148 8.86627C59.9463 8.52341 61.2698 8.53714 62.5013 8.88C62.7561 8.94857 62.9967 9.0446 63.2303 9.17484C63.2222 9.62578 63.2233 10.0767 63.2245 10.5265C63.2254 10.8631 63.2262 11.199 63.2232 11.5337C62.4022 10.9234 61.3618 10.5394 60.3144 10.6697C59.4863 10.7452 58.6936 11.1566 58.1982 11.808C57.5612 12.6103 57.4126 13.68 57.5258 14.6675C57.6108 15.4354 57.9363 16.2103 58.5521 16.7177C59.1961 17.2732 60.095 17.4652 60.9372 17.4034C61.7652 17.3075 62.5508 16.9714 63.2232 16.4914C63.2274 16.9384 63.2266 17.3829 63.2268 17.8279C63.2269 18.127 63.2274 18.4264 63.2303 18.7268C62.1899 19.3303 60.9372 19.4811 59.7481 19.4263C58.5308 19.3646 57.3135 18.9189 56.4288 18.0823C55.4663 17.184 54.9496 15.9086 54.8859 14.6263C54.8222 13.296 55.1053 11.904 55.8909 10.7932C56.5491 9.85373 57.5825 9.18174 58.7148 8.86627Z" fill="#797E8A"/>
<path d="M90.0751 9.07199C88.964 8.66056 87.7254 8.51658 86.5506 8.71547C85.5526 8.8869 84.5759 9.38745 84.0168 10.224C83.5214 10.9371 83.4577 11.8629 83.663 12.6857C83.8045 13.2412 84.1513 13.7348 84.6184 14.0846C85.1366 14.4679 85.7382 14.7194 86.3368 14.9697C86.4171 15.0033 86.4974 15.0369 86.5775 15.0708C86.6585 15.1051 86.7392 15.1396 86.8195 15.1748L86.8888 15.2072C87.2647 15.382 87.6574 15.5647 87.9307 15.8812C88.2421 16.32 88.143 17.04 87.6263 17.2869C87.0814 17.5406 86.4444 17.5337 85.864 17.4446C85.0218 17.3075 84.2362 16.9577 83.5497 16.4777C83.5457 16.7057 83.5439 16.9337 83.5434 17.1617C83.5432 17.2473 83.5431 17.3327 83.5431 17.4182C83.5432 17.5592 83.5436 17.7003 83.5439 17.8413C83.5448 18.1822 83.5457 18.5231 83.5426 18.864C84.3566 19.2137 85.2483 19.3852 86.133 19.44C87.3786 19.488 88.7375 19.248 89.6788 18.3977C90.6696 17.5543 90.9032 16.0526 90.3441 14.9212C90.0468 14.3177 89.4736 13.8994 88.8861 13.5771C88.5444 13.3835 88.1791 13.2368 87.8144 13.0903L87.8134 13.0899C87.3779 12.9151 86.9433 12.7406 86.5506 12.4869C86.1259 12.2263 86.0127 11.6571 86.1825 11.2252C86.4019 10.7863 86.9257 10.5943 87.3999 10.5737C88.3412 10.5463 89.2966 10.8206 90.0751 11.3417V9.07199Z" fill="#797E8A"/>
<path d="M68.9205 9.0377C69.6212 8.62627 70.5201 8.59199 71.2844 8.84571C71.2797 9.39429 71.2813 9.94286 71.2828 10.4914C71.2836 10.7657 71.2844 11.04 71.2844 11.3143C70.7819 10.9988 70.152 10.8617 69.5646 10.9234C68.8427 11.0057 68.2694 11.5406 67.9722 12.1577C67.6466 12.8091 67.59 13.5497 67.6112 14.2629V19.2H65.0987V8.88683C65.9327 8.8731 66.7738 8.88 67.6078 8.88683H67.6112C67.6065 9.27998 67.6081 9.67312 67.6096 10.0663C67.6104 10.2629 67.6112 10.4594 67.6112 10.656C67.8802 10.0114 68.2836 9.38739 68.9205 9.0377Z" fill="#797E8A"/>
<path d="M51.3625 8.87772H51.3617C51.2005 8.87846 51.0393 8.8792 50.8784 8.87966L50.6394 8.88V19.2H53.1661C53.1696 17.4822 53.1696 15.7629 53.1696 14.0434C53.1696 12.324 53.1696 10.6046 53.1732 8.88683C52.5715 8.87216 51.9662 8.87491 51.3625 8.87772Z" fill="#797E8A"/>
<path fill-rule="evenodd" clip-rule="evenodd" d="M79.6217 9.1131C78.4893 8.61254 77.2012 8.54397 75.9768 8.69484C74.6958 8.84571 73.4431 9.4354 72.6292 10.4366C71.886 11.3211 71.5251 12.4594 71.4543 13.5909C71.3552 14.9211 71.5817 16.3337 72.3885 17.4445C73.075 18.4045 74.1579 19.0629 75.3328 19.3029C76.3165 19.5017 77.3428 19.5017 78.3195 19.3029C79.4589 19.0766 80.5347 18.4594 81.2425 17.5543C81.936 16.704 82.2829 15.6274 82.3607 14.5509C82.4385 13.4468 82.3253 12.3086 81.8511 11.2937C81.4052 10.3406 80.6055 9.54516 79.6217 9.1131ZM78.8715 11.3486C78.3194 10.8137 77.5055 10.6012 76.7412 10.6491C76.1325 10.6834 75.5168 10.8823 75.0497 11.2937C74.4268 11.8423 74.1437 12.6514 74.0659 13.4469C73.9809 14.3177 74.0446 15.2366 74.4552 16.032C74.7736 16.6491 75.3611 17.1291 76.0546 17.3075C76.7341 17.4789 77.4772 17.4652 78.1354 17.2183C78.7016 17.0057 79.1475 16.5532 79.3881 16.0252C79.7562 15.2366 79.7916 14.352 79.7491 13.5017C79.6854 12.7269 79.4589 11.9109 78.8715 11.3486Z" fill="#797E8A"/>
<path fill-rule="evenodd" clip-rule="evenodd" d="M96.2963 8.68795C97.5702 8.53714 98.915 8.61937 100.076 9.18857C101.088 9.6754 101.873 10.5668 102.263 11.5886C102.567 12.3702 102.673 13.2206 102.659 14.0502C102.659 15.2983 102.312 16.5737 101.505 17.5679C100.748 18.5279 99.5944 19.1451 98.37 19.344C97.1739 19.5291 95.9141 19.4811 94.7817 19.0491C93.6351 18.6102 92.6797 17.7188 92.1913 16.6148C91.6888 15.4902 91.6322 14.2286 91.7879 13.0286C91.9507 11.8286 92.5169 10.656 93.4724 9.86056C94.258 9.1954 95.2701 8.81826 96.2963 8.68795ZM96.9828 10.656C97.7047 10.608 98.469 10.7657 99.0211 11.2389C99.5307 11.6503 99.8138 12.2606 99.9412 12.8846C100.09 13.6114 100.083 14.3589 99.9624 15.0926C99.8633 15.6343 99.6722 16.176 99.3042 16.608C98.9362 17.04 98.3841 17.3006 97.8179 17.3829C97.2093 17.4721 96.5652 17.4309 95.992 17.1909C95.3762 16.9371 94.902 16.4229 94.6472 15.8263C94.3429 15.12 94.2863 14.3314 94.3429 13.5771C94.3995 12.8435 94.6119 12.0892 95.1143 11.52C95.5744 10.9852 96.2751 10.6903 96.9828 10.656Z" fill="#797E8A"/>
<path d="M0 12.5829H11.784V24H0V12.5829Z" fill="#797E8A"/>
<path d="M24.7712 12.5829H12.9872V24H24.7712V12.5829Z" fill="#797E8A"/>
</svg>
